<?xml version="1.0" encoding="utf-8"?>
<!-- Generator: Adobe Illustrator 21.0.2, SVG Export Plug-In . SVG Version: 6.00 Build 0)  -->
<svg version="1.1" id="Layer_1" xmlns="http://www.w3.org/2000/svg" xmlns:xlink="http://www.w3.org/1999/xlink" x="0px" y="0px"
	 viewBox="0 0 245 437.1" style="enable-background:new 0 0 245 437.1;" xml:space="preserve">
<style type="text/css">
	.st0{fill:none;stroke:#FFFFFF;stroke-width:2.695;stroke-linecap:round;}
	.st1{clip-path:url(#SVGID_2_);fill:#D0D2D3;}
	.st2{clip-path:url(#SVGID_4_);fill:none;stroke:#FFFFFF;stroke-width:2.126;}
	.st3{fill:#1F293D;}
	.st4{clip-path:url(#SVGID_6_);fill:#D0D2D3;}
	.st5{clip-path:url(#SVGID_8_);fill:#D0D2D3;}
	.st6{fill:#FFFFFF;stroke:#FFFFFF;stroke-miterlimit:10;}
</style>
<path class="st0" d="M126.2,15.8h-9.1 M126.2,6.4h-9.1"/>
<g>
	<g>
		<defs>
			<rect id="SVGID_1_" width="245" height="437.1"/>
		</defs>
		<clipPath id="SVGID_2_">
			<use xlink:href="#SVGID_1_"  style="overflow:visible;"/>
		</clipPath>
		<path class="st1" d="M229.6,372.7H15.4V57.9h214.2V372.7z M240,414.4V22.7c0,0,0-22.7-22.7-22.7H27.6c0,0-22.7,0-22.7,22.7v391.7
			c0,0,0,22.7,22.7,22.7h189.7C217.3,437.1,240,437.1,240,414.4"/>
	</g>
	<g>
		<defs>
			<rect id="SVGID_3_" width="245" height="437.1"/>
		</defs>
		<clipPath id="SVGID_4_">
			<use xlink:href="#SVGID_3_"  style="overflow:visible;"/>
		</clipPath>
		<path class="st2" d="M112.6,386.4c0,0-10.2,0-10.2,10.2v18.5c0,0,0,10.2,10.2,10.2h19.7c0,0,10.2,0,10.2-10.2v-18.5
			c0,0,0-10.2-10.2-10.2H112.6z"/>
	</g>
</g>
<g>
	<path class="st3" d="M43.2,26.3c-0.7-0.7-1.1-1.8-1.1-3.2v-6.6H43v6.7c0,2.2,1.1,3.3,3.2,3.3c1,0,1.8-0.3,2.4-0.8
		c0.5-0.6,0.8-1.4,0.8-2.5v-6.7h0.9v6.6c0,1.4-0.4,2.4-1,3.2c-0.7,0.7-1.7,1.1-3.1,1.1C44.9,27.4,43.9,27,43.2,26.3z"/>
	<path class="st3" d="M53.5,16.6h4.1c1.1,0,1.9,0.3,2.5,0.8s0.9,1.2,0.9,2.1c0,0.9-0.3,1.6-0.9,2.2c-0.6,0.5-1.5,0.8-2.5,0.8h-3.2
		v4.8h-0.9V16.6z M57.5,21.7c0.8,0,1.5-0.2,1.9-0.6c0.4-0.4,0.6-0.9,0.6-1.6c0-0.7-0.2-1.2-0.6-1.6c-0.4-0.4-1.1-0.6-1.9-0.6h-3.1
		v4.3h3.1V21.7z"/>
	<path class="st3" d="M65.2,26.7c-0.7-0.4-1.3-1.1-1.7-1.9c-0.4-0.8-0.6-1.8-0.6-2.9c0-1.1,0.2-2.1,0.6-2.9c0.4-0.8,0.9-1.4,1.7-1.9
		c0.7-0.4,1.6-0.7,2.6-0.7c0.7,0,1.4,0.1,2,0.4c0.6,0.2,1.1,0.6,1.6,1L71,18.5c-0.5-0.5-1-0.8-1.5-1s-1.1-0.3-1.7-0.3
		c-1.2,0-2.2,0.4-2.9,1.2c-0.7,0.8-1,1.9-1,3.4s0.3,2.6,1,3.4c0.7,0.8,1.6,1.2,2.9,1.2c0.6,0,1.2-0.1,1.7-0.3s1-0.5,1.5-1l0.4,0.7
		c-0.5,0.5-1,0.8-1.6,1s-1.3,0.4-2,0.4C66.8,27.4,65.9,27.2,65.2,26.7z"/>
	<path class="st3" d="M75.7,26.7c-0.7-0.4-1.3-1.1-1.6-1.9c-0.4-0.8-0.6-1.8-0.6-2.9s0.2-2.1,0.6-2.9c0.4-0.8,0.9-1.4,1.6-1.9
		c0.7-0.4,1.6-0.7,2.5-0.7s1.8,0.2,2.5,0.7c0.7,0.4,1.3,1.1,1.7,1.9c0.4,0.8,0.6,1.8,0.6,2.9c0,1.1-0.2,2.1-0.6,2.9
		s-0.9,1.5-1.6,1.9s-1.6,0.7-2.5,0.7C77.2,27.4,76.4,27.2,75.7,26.7z M81,25.3c0.7-0.8,1-2,1-3.4s-0.3-2.6-1-3.4
		c-0.7-0.8-1.6-1.2-2.8-1.2c-1.2,0-2.1,0.4-2.8,1.2c-0.7,0.8-1,1.9-1,3.4s0.3,2.6,1,3.4c0.7,0.8,1.6,1.2,2.8,1.2S80.3,26.2,81,25.3z
		"/>
	<path class="st3" d="M94.9,16.6h0.8v10.7h-0.9v-8.5L91,27.3h-0.7l-3.8-8.5v8.5h-0.9V16.6h0.8l4.2,9.6L94.9,16.6z"/>
	<path class="st3" d="M98.8,27.3V16.6h0.9v10.7H98.8z"/>
	<path class="st3" d="M110.4,16.6h0.9v10.7h-0.7l-6.8-9.1v9.1h-0.9V16.6h0.7l6.8,9.1V16.6z"/>
	<path class="st3" d="M122.6,21.8v4.9c-0.4,0.2-0.9,0.4-1.6,0.5s-1.4,0.2-2.1,0.2c-1,0-1.9-0.2-2.7-0.7c-0.8-0.4-1.3-1.1-1.7-1.9
		c-0.4-0.8-0.6-1.8-0.6-2.9c0-1.1,0.2-2.1,0.6-2.9s1-1.4,1.7-1.9c0.7-0.4,1.6-0.6,2.6-0.6c1.5,0,2.7,0.5,3.6,1.4l-0.4,0.7
		c-0.5-0.5-1-0.8-1.5-1s-1.1-0.3-1.7-0.3c-1.3,0-2.2,0.4-2.9,1.2c-0.7,0.8-1,1.9-1,3.4s0.3,2.7,1,3.5s1.7,1.2,3,1.2
		c1,0,1.9-0.2,2.8-0.5v-3.5h-2.8v-0.8L122.6,21.8L122.6,21.8z"/>
	<path class="st3" d="M137.6,16.6h0.9v10.7h-0.9v-5h-6.8v5h-0.9V16.6h0.9v4.8h6.8V16.6z"/>
	<path class="st3" d="M143.4,26.7c-0.7-0.4-1.3-1.1-1.6-1.9c-0.4-0.8-0.6-1.8-0.6-2.9s0.2-2.1,0.6-2.9c0.4-0.8,0.9-1.4,1.6-1.9
		c0.7-0.4,1.6-0.7,2.5-0.7c0.9,0,1.8,0.2,2.5,0.7c0.7,0.4,1.3,1.1,1.7,1.9c0.4,0.8,0.6,1.8,0.6,2.9c0,1.1-0.2,2.1-0.6,2.9
		s-0.9,1.5-1.7,1.9c-0.7,0.4-1.6,0.7-2.5,0.7C145,27.4,144.2,27.2,143.4,26.7z M148.8,25.3c0.7-0.8,1-2,1-3.4s-0.3-2.6-1-3.4
		c-0.7-0.8-1.6-1.2-2.8-1.2s-2.1,0.4-2.8,1.2s-1,1.9-1,3.4s0.3,2.6,1,3.4c0.7,0.8,1.6,1.2,2.8,1.2S148.1,26.2,148.8,25.3z"/>
	<path class="st3" d="M153.5,27.3V16.6h0.9v9.9h5.5v0.8H153.5z"/>
	<path class="st3" d="M161.9,27.3V16.6h0.9v10.7H161.9z"/>
	<path class="st3" d="M166,16.6h3.4c1.7,0,3,0.5,3.9,1.4c0.9,0.9,1.4,2.2,1.4,3.9s-0.5,3-1.4,4c-0.9,1-2.2,1.4-3.9,1.4H166V16.6z
		 M169.4,26.5c1.5,0,2.5-0.4,3.3-1.1s1.1-1.9,1.1-3.4c0-3-1.5-4.5-4.4-4.5h-2.5v9.1h2.5V26.5z"/>
	<path class="st3" d="M185.4,27.3l-1.2-2.9h-5.8l-1.2,2.9h-1l4.7-10.7h0.8l4.6,10.7H185.4z M178.8,23.6h5.1l-2.5-5.9L178.8,23.6z"/>
	<path class="st3" d="M195.1,16.6l-4.1,6.3v4.4h-1v-4.4l-4.1-6.3h1.1l3.5,5.4l3.5-5.4H195.1z"/>
	<path class="st3" d="M197.4,27c-0.6-0.2-1.2-0.6-1.7-1.1l0.4-0.7c0.5,0.5,1.1,0.8,1.6,1s1.2,0.3,1.9,0.3c0.9,0,1.6-0.2,2.1-0.6
		c0.5-0.4,0.8-0.9,0.8-1.6c0-0.4-0.1-0.7-0.4-1c-0.3-0.3-0.6-0.4-0.9-0.6c-0.4-0.1-0.9-0.3-1.5-0.4c-0.8-0.2-1.5-0.4-2-0.6
		c-0.5-0.2-0.9-0.5-1.3-0.9c-0.4-0.4-0.5-0.9-0.5-1.6c0-0.6,0.2-1.1,0.5-1.6c0.3-0.5,0.8-0.8,1.3-1.1s1.2-0.4,2-0.4
		c0.7,0,1.4,0.1,2,0.4c0.6,0.3,1.2,0.6,1.6,1l-0.4,0.7c-0.5-0.5-1-0.8-1.5-1s-1.1-0.3-1.7-0.3c-0.9,0-1.6,0.2-2.1,0.6
		c-0.5,0.4-0.8,0.9-0.8,1.6c0,0.6,0.2,1,0.7,1.3c0.4,0.3,1.1,0.5,1.9,0.7l0.4,0.1c0.8,0.2,1.4,0.4,1.9,0.6c0.5,0.2,0.9,0.4,1.2,0.8
		c0.3,0.4,0.5,0.8,0.5,1.4c0,0.6-0.2,1.1-0.5,1.5c-0.3,0.4-0.8,0.8-1.3,1c-0.6,0.2-1.2,0.4-2,0.4C198.8,27.4,198.1,27.3,197.4,27z"
		/>
</g>
<g>
	<path class="st3" d="M36.3,44.3l-1.2-2.8h-5.8l-1.2,2.8h-1l4.6-10.7h0.8l4.6,10.7H36.3z M29.7,40.6h5.1l-2.5-5.9L29.7,40.6z"/>
	<path class="st3" d="M46.9,33.6h0.9v10.7h-0.7l-6.8-9.1v9.1h-0.9V33.6h0.7l6.8,9.1V33.6z"/>
	<path class="st3" d="M51,33.6h3.4c1.7,0,3,0.5,3.9,1.4s1.4,2.2,1.4,3.9s-0.5,3-1.4,4c-0.9,0.9-2.2,1.4-3.9,1.4H51V33.6z M54.3,43.5
		c1.4,0,2.5-0.4,3.3-1.1c0.7-0.8,1.1-1.9,1.1-3.4c0-3-1.5-4.5-4.4-4.5h-2.5v9.1h2.5V43.5z"/>
</g>
<g>
	<path class="st3" d="M68.9,43.7c-0.8-0.5-1.4-1.1-1.9-1.9c-0.4-0.8-0.6-1.8-0.6-2.9c0-1.1,0.2-2,0.6-2.9c0.4-0.8,1-1.5,1.9-1.9
		c0.8-0.4,1.7-0.7,2.8-0.7c0.7,0,1.4,0.1,2,0.3s1.2,0.5,1.6,0.9l-0.7,1.7c-0.5-0.4-0.9-0.6-1.4-0.8s-0.9-0.2-1.4-0.2
		c-1,0-1.7,0.3-2.2,0.9c-0.5,0.6-0.8,1.5-0.8,2.7s0.3,2.1,0.8,2.7c0.5,0.6,1.2,0.9,2.2,0.9c0.5,0,1-0.1,1.4-0.2
		c0.5-0.2,0.9-0.4,1.4-0.8l0.7,1.7c-0.4,0.4-0.9,0.7-1.6,0.9s-1.3,0.3-2,0.3C70.6,44.4,69.7,44.2,68.9,43.7z"/>
	<path class="st3" d="M85.3,44.3l-1-2.4h-5l-1,2.4h-2.4l4.9-10.7h1.9l4.9,10.7H85.3z M80.1,40.1h3.4l-1.7-4L80.1,40.1z"/>
	<path class="st3" d="M88.9,44.3V33.6h2.3v8.8H96v1.9H88.9z"/>
	<path class="st3" d="M97.8,44.3V33.6h7.4v1.8h-5.1v2.5h4.8v1.8h-4.8v2.7h5.1v1.8L97.8,44.3L97.8,44.3z"/>
	<path class="st3" d="M114.2,33.6h2.2v10.7h-1.7l-5.3-6.8v6.8h-2.2V33.6h1.7l5.3,6.8V33.6z"/>
	<path class="st3" d="M119,33.6h4.1c1.2,0,2.2,0.2,3,0.6c0.8,0.4,1.5,1,1.9,1.8c0.4,0.8,0.7,1.8,0.7,2.9c0,1.1-0.2,2.1-0.7,2.9
		c-0.4,0.8-1.1,1.4-1.9,1.8c-0.8,0.4-1.9,0.6-3,0.6H119V33.6z M122.9,42.4c2.3,0,3.4-1.2,3.4-3.5s-1.1-3.4-3.4-3.4h-1.6v6.9H122.9z"
		/>
	<path class="st3" d="M138.8,44.3l-1-2.4h-5l-1,2.4h-2.4l4.9-10.7h1.9l4.9,10.7H138.8z M133.5,40.1h3.5l-1.7-4L133.5,40.1z"/>
	<path class="st3" d="M151.4,44.3h-2.5l-1.4-3.6c-0.1-0.3-0.3-0.5-0.5-0.6s-0.5-0.2-0.8-0.2h-1.5v4.3h-2.3V33.5h4.8
		c1.2,0,2.2,0.3,2.8,0.8s1,1.3,1,2.3c0,0.7-0.2,1.3-0.6,1.8c-0.4,0.5-0.9,0.9-1.6,1.1c0.6,0.1,1.1,0.6,1.4,1.3L151.4,44.3z
		 M146.8,38.2c0.7,0,1.2-0.1,1.5-0.3s0.5-0.6,0.5-1.1s-0.2-0.8-0.5-1.1c-0.3-0.2-0.8-0.3-1.5-0.3h-2.1v2.8L146.8,38.2L146.8,38.2z"
		/>
	<path class="st3" d="M157.9,44.3V33.6h7.4v1.8h-5.1v2.5h4.8v1.8h-4.8v2.7h5.1v1.8L157.9,44.3L157.9,44.3z"/>
	<path class="st3" d="M175.2,33.6h2.4l-4.8,10.7h-1.9l-4.8-10.7h2.4l3.3,7.8L175.2,33.6z"/>
	<path class="st3" d="M178.8,44.3V33.6h7.4v1.8H181v2.5h4.8v1.8H181v2.7h5.1v1.8L178.8,44.3L178.8,44.3z"/>
	<path class="st3" d="M195.2,33.6h2.2v10.7h-1.7l-5.4-6.8v6.8h-2.2V33.6h1.7l5.3,6.8L195.2,33.6L195.2,33.6z"/>
	<path class="st3" d="M202.3,44.3v-8.8H199v-1.9h9.1v1.9h-3.3v8.8H202.3z"/>
	<path class="st3" d="M210.8,44.1c-0.7-0.2-1.4-0.5-1.9-0.9l0.8-1.7c1,0.7,2.2,1.1,3.5,1.1c0.7,0,1.2-0.1,1.6-0.3
		c0.4-0.2,0.5-0.5,0.5-0.9c0-0.3-0.2-0.6-0.5-0.8s-0.9-0.4-1.8-0.6c-0.9-0.2-1.7-0.4-2.2-0.7c-0.6-0.3-1-0.6-1.2-1
		c-0.3-0.4-0.4-0.9-0.4-1.5s0.2-1.2,0.5-1.7c0.4-0.5,0.9-0.9,1.5-1.2c0.6-0.3,1.4-0.4,2.2-0.4c0.8,0,1.5,0.1,2.2,0.3
		c0.7,0.2,1.3,0.5,1.7,0.9l-0.8,1.7c-0.9-0.7-2-1.1-3.1-1.1c-0.6,0-1.1,0.1-1.4,0.4s-0.5,0.6-0.5,1c0,0.2,0.1,0.4,0.2,0.6
		c0.1,0.2,0.4,0.3,0.7,0.4c0.3,0.1,0.8,0.2,1.4,0.4c1.4,0.3,2.4,0.7,3,1.2c0.6,0.5,0.9,1.1,0.9,2c0,1-0.4,1.8-1.2,2.4
		c-0.8,0.6-1.9,0.9-3.3,0.9C212.3,44.4,211.5,44.3,210.8,44.1z"/>
</g>
<g>
	<g>
		<defs>
			<rect id="SVGID_5_" width="245" height="437.1"/>
		</defs>
		<clipPath id="SVGID_6_">
			<use xlink:href="#SVGID_5_"  style="overflow:visible;"/>
		</clipPath>
		<path class="st4" d="M3,60H2.9c0,0-2.8,0-2.8,2.8v76.6c0,0,0,2.8,2.8,2.8H3V60z"/>
	</g>
	<g>
		<defs>
			<rect id="SVGID_7_" width="245" height="437.1"/>
		</defs>
		<clipPath id="SVGID_8_">
			<use xlink:href="#SVGID_7_"  style="overflow:visible;"/>
		</clipPath>
		<path class="st5" d="M242,124.5h0.1c0,0,2.8,0,2.8-2.8V95.1c0,0,0-2.8-2.8-2.8H242V124.5z"/>
	</g>
</g>
<rect x="15.4" y="57.9" class="st6" width="214.2" height="314.8"/>
</svg>
