<?xml version="1.0" encoding="utf-8"?>
<!-- Generator: Adobe Illustrator 19.0.0, SVG Export Plug-In . SVG Version: 6.00 Build 0)  -->
<svg version="1.1" id="Layer_1" xmlns="http://www.w3.org/2000/svg" xmlns:xlink="http://www.w3.org/1999/xlink" x="0px" y="0px"
	 viewBox="0 0 235.4 446.4" style="enable-background:new 0 0 235.4 446.4;" xml:space="preserve">
<style type="text/css">
	.st0{clip-path:url(#SVGID_2_);fill:#FBFBFB;}
	.st1{clip-path:url(#SVGID_2_);fill:#FFFFFF;}
	.st2{fill:#231F20;}
	.st3{font-family:'MinionPro-Regular';}
	.st4{font-size:12px;}
	.st5{clip-path:url(#SVGID_4_);fill:#BFC1C0;}
	.st6{clip-path:url(#SVGID_6_);fill:url(#SVGID_7_);}
	.st7{clip-path:url(#SVGID_9_);fill:#93C840;}
	.st8{fill:none;stroke:#FFFFFF;stroke-width:2.695;stroke-linecap:round;}
	.st9{clip-path:url(#SVGID_11_);fill:#FFFFFF;}
	.st10{clip-path:url(#SVGID_11_);fill:#4D4D4F;}
	.st11{clip-path:url(#SVGID_11_);fill:#93C840;}
	.st12{clip-path:url(#SVGID_13_);fill:url(#SVGID_14_);}
</style>
<g>
	<defs>
		<rect id="SVGID_1_" width="235.4" height="446.4"/>
	</defs>
	<clipPath id="SVGID_2_">
		<use xlink:href="#SVGID_1_"  style="overflow:visible;"/>
	</clipPath>
	<path class="st0" d="M46.3,4.4c0,0-42.5,0-42.5,42.5v356.9c0,0,0,42.5,42.5,42.5h146.5c0,0,42.5,0,42.5-42.5V47
		c0,0,0-42.5-42.5-42.5H46.3z"/>
	<path class="st1" d="M26,72.2c0,0-5.7,0-5.7,5.7v294.4c0,0,0,5.7,5.7,5.7h187.3c0,0,5.7,0,5.7-5.7V77.8c0,0,0-5.7-5.7-5.7H26z"/>
</g>
<text transform="matrix(1 0 0 1 25.293 80.8852)" class="st2 st3 st4"> </text>
<g>
	<defs>
		<rect id="SVGID_3_" width="235.4" height="446.4"/>
	</defs>
	<clipPath id="SVGID_4_">
		<use xlink:href="#SVGID_3_"  style="overflow:visible;"/>
	</clipPath>
	<path class="st5" d="M223.3,434.1c-6.2,6.2-14.5,9.6-23.3,9.6H38.7c-8.8,0-17.1-3.4-23.3-9.6c-6.2-6.2-9.6-14.5-9.6-23.3v-7.3h2.4
		v7.3c0,16.8,13.7,30.5,30.5,30.5H200c16.8,0,30.5-13.6,30.5-30.5v-7.3h2.4v7.3C232.9,419.6,229.5,427.8,223.3,434.1 M2.7,175.4
		l-0.9-0.9v-15.2c0.2-0.2,0.5-0.5,0.9-0.9h0.6v17.1H2.7z M2.7,134.9L1.8,134v-15.2l0.9-0.9h0.6v17.1H2.7z M2.7,94.1l-0.9-0.9V72.8
		c0.2-0.2,0.5-0.5,0.9-0.9h0.6v22.2H2.7z M5.8,177.2v-1.8v-17.1v-1.8v-19.8v-1.8v-17.1V116V95.9v-1.8V71.9V70V50.5h2.4v349.3H5.8
		V177.2z M228.1,39.3v371.5c0,15.4-12.6,28-28.1,28H38.7c-15.5,0-28.1-12.6-28.1-28V39.3c0-15.4,12.6-28,28.1-28H200
		C215.5,11.2,228.1,23.8,228.1,39.3 M232.9,399.8h-2.4V50.5h2.4V399.8z M15.4,16c6.2-6.2,14.5-9.6,23.3-9.6H200
		c8.8,0,17.1,3.4,23.3,9.6c6.2,6.2,9.6,14.5,9.6,23.3v7.6h-2.4v-7.6c0-16.8-13.7-30.5-30.5-30.5H38.7C21.9,8.8,8.2,22.4,8.2,39.3
		v7.6H5.8v-7.6C5.8,30.5,9.2,22.2,15.4,16 M158,2.7l1.6-0.9H194l1.2,0.9V4H158V2.7z M225,14.3C218.3,7.6,209.4,4,200,4h-3V2.7V1.8
		l-0.7-0.5l-1.2-0.9L194.6,0H194h-34.4h-0.5l-0.4,0.2l-1.6,0.9l-0.9,0.5v1.1V4H38.7c-9.4,0-18.3,3.7-25,10.3C7,21,3.3,29.8,3.3,39.3
		V70H2.7H2l-0.5,0.5l-0.9,0.9L0,72v0.8v20.4v0.8l0.5,0.5l0.9,0.9L2,95.9h0.8h0.6V116H2.7H2l-0.5,0.5l-0.9,0.9L0,118v0.8V134v0.8
		l0.5,0.5l0.9,0.9l0.5,0.5h0.8h0.6v19.8H2.7H2L1.4,157l-0.9,0.9L0,158.5v0.8v15.2v0.8l0.5,0.5l0.9,0.9l0.5,0.5h0.8h0.6v233.6
		c0,9.4,3.7,18.3,10.4,25c6.7,6.7,15.6,10.3,25,10.3H200c9.4,0,18.3-3.7,25-10.3c6.7-6.7,10.4-15.5,10.4-25V39.3
		C235.4,29.8,231.7,21,225,14.3"/>
	<path class="st5" d="M216.5,375.5H21.6V74.6h194.9V375.5z M216.5,72.2H21.6c-1.3,0-2.4,1.1-2.4,2.4v300.9c0,1.3,1.1,2.4,2.4,2.4
		h194.9c1.3,0,2.4-1.1,2.4-2.4V74.6C218.9,73.3,217.8,72.2,216.5,72.2"/>
</g>
<g>
	<defs>
		<path id="SVGID_5_" d="M106.4,422.2c-7.1-7.1-7.1-18.6,0-25.6c7.1-7.1,18.6-7.1,25.6,0c7.1,7.1,7.1,18.6,0,25.6
			c-3.5,3.5-8.2,5.3-12.8,5.3C114.6,427.5,109.9,425.8,106.4,422.2 M104.7,394.9c-8,8-8,21,0,29.1c8,8,21,8,29.1,0s8-21,0-29.1
			c-4-4-9.3-6-14.5-6C113.9,388.9,108.7,390.9,104.7,394.9"/>
	</defs>
	<clipPath id="SVGID_6_">
		<use xlink:href="#SVGID_5_"  style="overflow:visible;"/>
	</clipPath>
	
		<linearGradient id="SVGID_7_" gradientUnits="userSpaceOnUse" x1="-176.7412" y1="628.2219" x2="-175.7412" y2="628.2219" gradientTransform="matrix(54.2365 14.5326 14.5326 -54.2365 547.9442 37044.1992)">
		<stop  offset="0" style="stop-color:#B2B4B7"/>
		<stop  offset="3.571430e-03" style="stop-color:#B2B4B7"/>
		<stop  offset="0.1561" style="stop-color:#C3C4C6"/>
		<stop  offset="0.5087" style="stop-color:#E3E4E5"/>
		<stop  offset="0.8026" style="stop-color:#F8F8F8"/>
		<stop  offset="1" style="stop-color:#FFFFFF"/>
	</linearGradient>
	<polygon class="st6" points="99.7,377.6 152.5,391.8 138.7,443.3 85.9,429.1 	"/>
</g>
<g>
	<defs>
		<rect id="SVGID_8_" width="235.4" height="446.4"/>
	</defs>
	<clipPath id="SVGID_9_">
		<use xlink:href="#SVGID_8_"  style="overflow:visible;"/>
	</clipPath>
	<path class="st7" d="M58.6,30.6L58.6,30.6l-13.2,0v13l0,0c0,0.1,0,0.1,0,0.2c0,7.3,5.9,13.2,13.2,13.2s13.2-5.9,13.2-13.2
		c0-0.1,0-0.1,0-0.2l0,0l0,0C71.6,36.5,65.8,30.7,58.6,30.6"/>
</g>
<path class="st8" d="M63.1,48.5H54 M63.1,39.1H54"/>
<g>
	<defs>
		<rect id="SVGID_10_" width="235.4" height="446.4"/>
	</defs>
	<clipPath id="SVGID_11_">
		<use xlink:href="#SVGID_10_"  style="overflow:visible;"/>
	</clipPath>
	<path class="st9" d="M63.1,45.1H54c-0.7,0-1.3-0.6-1.3-1.3c0-0.7,0.6-1.3,1.3-1.3h9.1c0.7,0,1.3,0.6,1.3,1.3
		C64.4,44.5,63.8,45.1,63.1,45.1"/>
	<path class="st10" d="M119.7,38.2c-1.2-1.3-3-2-5.4-2c-1.5,0-2.8,0.3-4,1c-1.2,0.7-2.1,1.6-2.7,2.7c-0.6,1.2-1,2.5-1,4
		c0,1.5,0.3,2.8,1,4c0.6,1.2,1.6,2.1,2.7,2.7c1.2,0.6,2.5,1,4,1c1.3,0,2.4-0.2,3.5-0.7c1.1-0.4,2-1.1,2.7-1.9c0.1-0.1,0.1-0.2,0-0.3
		l-1.7-1.8c0,0-0.1-0.1-0.2-0.1c-0.1,0-0.1,0-0.2,0.1c-0.5,0.5-1.1,0.9-1.8,1.2c-0.7,0.3-1.4,0.4-2.2,0.4c-1.1,0-2-0.3-2.8-0.9
		c-0.7-0.6-1.2-1.3-1.4-2.3h10.7c0.1,0,0.2-0.1,0.2-0.2c0-0.6,0.1-0.9,0.1-1.2C121.4,41.4,120.9,39.5,119.7,38.2 M110.3,42.5
		c0.2-1,0.6-1.8,1.3-2.4c0.7-0.6,1.6-1,2.7-1c1.1,0,2,0.3,2.7,1c0.6,0.6,1,1.4,1.1,2.4H110.3z"/>
	<path class="st10" d="M169.5,51.3h-3.1c-0.1,0-0.2-0.1-0.2-0.2V36.5c0-0.1,0.1-0.2,0.2-0.2h3.1c0.1,0,0.2,0.1,0.2,0.2v14.6
		C169.8,51.2,169.7,51.3,169.5,51.3"/>
	<path class="st10" d="M168,34.5c1.1,0,2-0.9,2-2c0-1.1-0.9-2-2-2c-1.1,0-2,0.9-2,2C166,33.6,166.9,34.5,168,34.5"/>
	<path class="st10" d="M127.5,51.4h-3.2c-0.1,0-0.2-0.1-0.2-0.2V36.5c0-0.1,0.1-0.2,0.2-0.2h3.2c0.1,0,0.2,0.1,0.2,0.2v2
		c0.5-0.7,1-1.2,1.7-1.6c0.9-0.5,1.9-0.8,3.1-0.8c0.1,0,0.2,0.1,0.2,0.2v3.2c0,0.1,0,0.1-0.1,0.2c0,0-0.1,0.1-0.2,0.1
		c-1.4-0.1-2.5,0.3-3.3,1c-0.8,0.7-1.3,1.7-1.4,2.9l0,7.4C127.7,51.3,127.6,51.4,127.5,51.4"/>
	<path class="st10" d="M138.8,51.4h-3.2c-0.1,0-0.2-0.1-0.2-0.2V30.8c0-0.1,0.1-0.2,0.2-0.2h3.2c0.1,0,0.2,0.1,0.2,0.2v20.3
		C139,51.3,138.9,51.4,138.8,51.4"/>
	<path class="st10" d="M180,51.4c-1.5,0-2.8-0.3-3.9-1c-1.2-0.6-2.1-1.5-2.7-2.7c-0.6-1.1-1-2.5-1-4c0-1.5,0.3-2.8,1-4
		c0.6-1.2,1.5-2.1,2.7-2.7c1.1-0.6,2.5-1,3.9-1c1.3,0,2.5,0.2,3.6,0.6c1.1,0.4,1.9,1,2.6,1.8c0.1,0.1,0.1,0.2,0,0.3l-1.7,2
		c0,0.1-0.1,0.1-0.2,0.1c-0.1,0-0.1,0-0.2-0.1c-1-1-2.3-1.6-3.9-1.6c-1.2,0-2.2,0.4-3,1.2c-0.8,0.8-1.2,1.9-1.2,3.2
		c0,1.3,0.4,2.4,1.2,3.2c0.8,0.8,1.7,1.2,3,1.2c1.8,0,3.2-0.6,4.1-1.7c0-0.1,0.1-0.1,0.2-0.1c0.1,0,0.1,0,0.2,0.1l1.8,1.8
		c0.1,0.1,0.1,0.2,0,0.3c-0.7,0.9-1.6,1.6-2.7,2.1C182.7,51.2,181.4,51.4,180,51.4"/>
	<path class="st10" d="M88.5,38.2c-1.2-1.3-3-2-5.4-2c-1.5,0-2.8,0.3-4,1c-1.2,0.7-2.1,1.6-2.7,2.7c-0.6,1.2-1,2.5-1,4
		c0,1.5,0.3,2.8,1,4c0.6,1.2,1.6,2.1,2.7,2.7c1.2,0.6,2.5,1,4,1c1.3,0,2.4-0.2,3.5-0.7c1.1-0.4,2-1.1,2.7-1.9c0.1-0.1,0.1-0.2,0-0.3
		l-1.7-1.8c0,0-0.1-0.1-0.2-0.1c-0.1,0-0.1,0-0.2,0.1c-0.5,0.5-1.1,0.9-1.8,1.2c-0.7,0.3-1.4,0.4-2.2,0.4c-1.1,0-2-0.3-2.8-0.9
		c-0.7-0.6-1.2-1.3-1.4-2.3H90c0.1,0,0.2-0.1,0.2-0.2c0-0.6,0.1-0.9,0.1-1.2C90.2,41.4,89.7,39.5,88.5,38.2 M79.1,42.5
		c0.2-1,0.6-1.8,1.3-2.4c0.7-0.6,1.6-1,2.7-1c1.1,0,2,0.3,2.7,1c0.6,0.6,1,1.4,1.1,2.4H79.1z"/>
	<path class="st10" d="M147.3,49.4l-2.4,6.2c0,0.1,0,0.3,0.1,0.3l2.7,1c0.1,0,0.2,0,0.3-0.2l2.9-7.4L147.3,49.4z"/>
	<path class="st10" d="M155.8,36.4c0-0.1-0.1-0.1-0.2-0.1h-0.3h-2.8h-0.1c-0.1,0-0.2,0.1-0.2,0.2l-3.9,10.2l-3.9-10.2
		c0-0.1-0.1-0.2-0.2-0.2h-0.1h-3c-0.1,0-0.2,0-0.2,0.1c0,0.1-0.1,0.1,0,0.2l5.7,14.7c0,0.1,0.1,0.1,0.2,0.1l0,0.1l1.6-0.1h1.6
		c0.1,0,0.2-0.1,0.2-0.2l5.7-14.6C155.9,36.5,155.9,36.4,155.8,36.4"/>
	<path class="st10" d="M106,36.3c0-0.1-0.1-0.1-0.2-0.1h-0.3h-2.8h-0.1c-0.1,0-0.2,0.1-0.2,0.2l-3.9,10.2l-3.9-10.2
		c0-0.1-0.1-0.2-0.2-0.2h-0.1h-3c-0.1,0-0.2,0-0.2,0.1c0,0.1-0.1,0.1,0,0.2l5.7,14.6c0,0.1,0.1,0.2,0.2,0.2h1.6h1.6
		c0.1,0,0.2-0.1,0.2-0.2l5.7-14.6C106,36.5,106,36.4,106,36.3"/>
	<path class="st10" d="M163.5,48.1C163.5,48.1,163.5,48,163.5,48.1l0-0.2c0-0.1,0-0.1-0.1-0.2c0,0-0.1,0-0.2,0c-0.1,0-0.3,0-0.4-0.1
		c-0.8-0.3-1.1-0.7-1.3-1.5c-0.1-0.3-0.1-0.7-0.1-1v-5.2h1.8c0.1,0,0.2-0.1,0.2-0.2v-3.1c0-0.1-0.1-0.2-0.2-0.2h-1.8v-3.2
		c0-0.1-0.1-0.2-0.2-0.2H158c-0.1,0-0.2,0.1-0.2,0.2v12.8c0,0,0,0.3,0,0.8c0,1.2,0.3,3.4,2.1,4.3c1.1,0.4,2.2,0.6,3.4,0.4
		c0,0,0,0,0,0c0.1,0,0.2-0.1,0.2-0.2V48.1z"/>
	<path class="st11" d="M28.1,77.9v34.2c0,0,0,8.5,8.5,8.5h164.8c0,0,8.5,0,8.5-8.5V77.9"/>
</g>
<g>
	<defs>
		<path id="SVGID_12_" d="M101.7,409.4c0,9.7,7.8,17.5,17.5,17.5c9.7,0,17.5-7.8,17.5-17.5c0-9.7-7.8-17.5-17.5-17.5
			C109.5,391.9,101.7,399.8,101.7,409.4"/>
	</defs>
	<clipPath id="SVGID_13_">
		<use xlink:href="#SVGID_12_"  style="overflow:visible;"/>
	</clipPath>
	
		<linearGradient id="SVGID_14_" gradientUnits="userSpaceOnUse" x1="-176.6114" y1="619.2668" x2="-175.6114" y2="619.2668" gradientTransform="matrix(42.2225 15.3677 -15.3677 42.2225 17071.7793 -23031.1113)">
		<stop  offset="0" style="stop-color:#E6E7E8"/>
		<stop  offset="5.220864e-04" style="stop-color:#E6E7E8"/>
		<stop  offset="3.571430e-03" style="stop-color:#E6E7E8"/>
		<stop  offset="2.441456e-02" style="stop-color:#E8E9EA"/>
		<stop  offset="0.227" style="stop-color:#F5F5F6"/>
		<stop  offset="0.4867" style="stop-color:#FDFDFD"/>
		<stop  offset="1" style="stop-color:#FFFFFF"/>
	</linearGradient>
	<polygon class="st12" points="90.4,422.9 132.6,438.2 148,396 105.8,380.6 	"/>
</g>
</svg>
