<?xml version="1.0" encoding="utf-8"?>
<!-- Generator: Adobe Illustrator 19.0.0, SVG Export Plug-In . SVG Version: 6.00 Build 0)  -->
<svg version="1.1" id="Layer_1" xmlns="http://www.w3.org/2000/svg" xmlns:xlink="http://www.w3.org/1999/xlink" x="0px" y="0px"
	 viewBox="0 0 194.3 194.3" style="enable-background:new 0 0 194.3 194.3;" xml:space="preserve">
<style type="text/css">
	.st0{clip-path:url(#SVGID_2_);fill:#808285;}
	.st1{clip-path:url(#SVGID_2_);fill:#94C93D;}
	.st2{clip-path:url(#SVGID_2_);fill:#E0228F;}
	.st3{clip-path:url(#SVGID_2_);fill:#F47821;}
</style>
<g>
	<defs>
		<rect id="SVGID_1_" y="0" width="194.3" height="194.3"/>
	</defs>
	<clipPath id="SVGID_2_">
		<use xlink:href="#SVGID_1_"  style="overflow:visible;"/>
	</clipPath>
	<path class="st0" d="M97.1,172.9c41.8,0,75.7-33.9,75.7-75.7c0-41.8-33.9-75.7-75.7-75.7S21.4,55.3,21.4,97.1
		C21.4,139,55.3,172.9,97.1,172.9"/>
	<path class="st1" d="M152.2,17.1C136.5,6.3,117.6,0,97.1,0C70,0,45.5,11.1,27.9,29l31.4,27.3c9.9-9.2,23.2-14.8,37.9-14.8
		c11.1,0,21.4,3.2,30.1,8.8L152.2,17.1z"/>
	<path class="st2" d="M19.5,38.8C7.3,55,0,75.2,0,97.1c0,53.7,43.5,97.1,97.1,97.1c11.1,0,21.8-1.9,31.8-5.4l-16.3-38.3
		c-4.9,1.4-10.1,2.2-15.5,2.2c-30.8,0-55.7-24.9-55.7-55.7c0-11.5,3.5-22.2,9.5-31.1L19.5,38.8z"/>
	<path class="st3" d="M140.8,183.9c31.7-16,53.5-48.8,53.5-86.8c0-28.6-12.3-54.3-32-72l-25.1,33.3c9.7,10,15.7,23.7,15.7,38.7
		c0,20.8-11.4,38.9-28.3,48.5L140.8,183.9z"/>
</g>
</svg>
