<?xml version="1.0" encoding="utf-8"?>
<!-- Generator: Adobe Illustrator 19.0.0, SVG Export Plug-In . SVG Version: 6.00 Build 0)  -->
<svg version="1.1" id="Layer_1" xmlns="http://www.w3.org/2000/svg" xmlns:xlink="http://www.w3.org/1999/xlink" x="0px" y="0px"
	 viewBox="0 0 235 437.2" style="enable-background:new 0 0 235 437.2;" xml:space="preserve">
<style type="text/css">
	.st0{clip-path:url(#XMLID_30_);fill:#D0D2D3;}
	.st1{clip-path:url(#XMLID_30_);fill:none;stroke:#FFFFFF;stroke-width:2.126;}
	.st2{clip-path:url(#XMLID_30_);fill:#58595B;}
</style>
<g>
	<defs>
		<rect id="XMLID_14_" x="0" y="0.1" width="235" height="437.1"/>
	</defs>
	<clipPath id="XMLID_30_">
		<use xlink:href="#XMLID_14_"  style="overflow:visible;"/>
	</clipPath>
	<path class="st0" d="M224.6,372.8H10.4V49.2h214.2V372.8z M235,414.5V22.7c0,0,0-22.7-22.7-22.7H22.7c0,0-22.7,0-22.7,22.7v391.7
		c0,0,0,22.7,22.7,22.7h189.7C212.3,437.1,235,437.1,235,414.5"/>
	<path id="XMLID_26_" class="st1" d="M107.6,385.5c0,0-10.2,0-10.2,10.2v18.5c0,0,0,10.2,10.2,10.2h19.7c0,0,10.2,0,10.2-10.2v-18.5
		c0,0,0-10.2-10.2-10.2H107.6z"/>
	<path class="st2" d="M186.5,33.4c1.1,0,2.1-0.2,3-0.5c0.9-0.4,1.5-0.9,2-1.5c0.5-0.7,0.7-1.4,0.7-2.3c0-0.9-0.2-1.6-0.7-2.1
		c-0.5-0.5-1.1-0.9-1.8-1.2c-0.7-0.3-1.6-0.5-2.8-0.8l-0.6-0.2c-1.3-0.3-2.2-0.7-2.9-1.1c-0.7-0.4-1-1.1-1-2c0-1,0.4-1.8,1.1-2.4
		s1.8-0.9,3.1-0.9c0.9,0,1.8,0.2,2.6,0.5c0.8,0.3,1.5,0.8,2.3,1.5l0.6-1.1c-0.7-0.7-1.5-1.2-2.4-1.6c-0.9-0.4-1.9-0.5-3-0.5
		c-1.1,0-2.1,0.2-3,0.6c-0.9,0.4-1.5,0.9-2,1.6c-0.5,0.7-0.7,1.5-0.7,2.4c0,1,0.3,1.7,0.8,2.3c0.5,0.6,1.2,1,1.9,1.3
		c0.8,0.3,1.8,0.6,3,0.8c0.9,0.2,1.7,0.4,2.2,0.6c0.6,0.2,1,0.5,1.4,0.9s0.5,0.8,0.5,1.4c0,1-0.4,1.8-1.1,2.3
		c-0.7,0.6-1.8,0.8-3.1,0.8c-1.1,0-2.1-0.1-2.9-0.4c-0.8-0.3-1.6-0.8-2.4-1.5l-0.6,1.1c0.7,0.7,1.6,1.2,2.6,1.6
		C184.1,33.3,185.2,33.4,186.5,33.4 M171.1,31.3l-4.8-14l-1.1,0l-4.8,14l-4.8-14h-1.4l5.6,15.9h1.2l4.8-13.7l4.8,13.7h1.2l5.6-15.9
		h-1.4L171.1,31.3z M150.8,33.3v-1.2h-8.5v-6.3h8v-1.2h-8v-6h8.5v-1.2H141v15.9H150.8z M135.3,17.3h-1.4v15.9h1.4V17.3z M122.6,31.5
		l-6.1-14.2H115l6.9,15.9h1.3l6.9-15.9h-1.4L122.6,31.5z M105.2,33.3v-2.7h-7.6v-4h7.1v-2.7h-7.1V20h7.6v-2.7h-11v15.9H105.2z
		 M83.4,24.5v2.4h3.1v3.5c-0.9,0.2-1.8,0.3-2.6,0.3c-3.2,0-4.8-1.8-4.8-5.5c0-3.6,1.5-5.4,4.6-5.4c0.8,0,1.6,0.1,2.3,0.4
		c0.7,0.2,1.4,0.6,2.2,1.2l1.1-2.5c-0.6-0.6-1.5-1-2.5-1.3c-1-0.3-2.1-0.5-3.2-0.5c-1.6,0-3,0.3-4.3,1c-1.2,0.7-2.2,1.6-2.8,2.8
		s-1,2.7-1,4.3c0,1.7,0.3,3.2,1,4.4s1.6,2.2,2.9,2.8c1.2,0.7,2.7,1,4.4,1c1.1,0,2.2-0.1,3.2-0.3c1-0.2,1.9-0.5,2.7-0.9v-7.8H83.4z
		 M64.8,21.1l2.6,6h-5.1L64.8,21.1z M73.5,33.3l-7.3-15.9h-2.8L56,33.3h3.5l1.5-3.5h7.5l1.5,3.5H73.5z M46.3,24.2V20h3.3
		c1.8,0,2.7,0.7,2.7,2.1c0,1.4-0.9,2.1-2.7,2.1H46.3z M42.9,33.3h3.5v-6.4h3.7c1.7,0,3.1-0.4,4.1-1.3s1.5-2,1.5-3.5
		c0-1.5-0.5-2.6-1.5-3.5s-2.3-1.3-4.1-1.3h-7.2V33.3z"/>
</g>
</svg>
