<?xml version="1.0" encoding="utf-8"?>
<!-- Generator: Adobe Illustrator 19.0.0, SVG Export Plug-In . SVG Version: 6.00 Build 0)  -->
<svg version="1.1" id="Layer_1" xmlns="http://www.w3.org/2000/svg" xmlns:xlink="http://www.w3.org/1999/xlink" x="0px" y="0px"
	 viewBox="0 0 194.3 194.3" style="enable-background:new 0 0 194.3 194.3;" xml:space="preserve">
<style type="text/css">
	.st0{clip-path:url(#SVGID_2_);fill:#EAF2CD;}
	.st1{clip-path:url(#SVGID_2_);fill:#FEE4CD;}
	.st2{clip-path:url(#SVGID_2_);fill:#F5CCE1;}
</style>
<g>
	<defs>
		<rect id="SVGID_1_" x="1" y="0.1" width="193.2" height="193.2"/>
	</defs>
	<clipPath id="SVGID_2_">
		<use xlink:href="#SVGID_1_"  style="overflow:visible;"/>
	</clipPath>
	<path class="st0" d="M175.5,96.7c0,43-34.9,77.9-77.9,77.9s-77.9-34.9-77.9-77.9s34.9-77.9,77.9-77.9S175.5,53.6,175.5,96.7
		 M194.2,96.7c0-53.4-43.3-96.6-96.6-96.6C44.3,0.1,1,43.3,1,96.7s43.3,96.6,96.6,96.6C151,193.3,194.2,150,194.2,96.7"/>
	<path class="st1" d="M149.5,96.7c0,28.7-23.2,51.9-51.9,51.9s-51.9-23.2-51.9-51.9s23.2-51.9,51.9-51.9S149.5,68,149.5,96.7
		 M167.6,96.7c0-38.7-31.4-70-70-70s-70,31.4-70,70s31.4,70,70,70S167.6,135.3,167.6,96.7"/>
	<path class="st2" d="M124.9,96.7c0,15.1-12.2,27.3-27.3,27.3c-15.1,0-27.3-12.2-27.3-27.3c0-15.1,12.2-27.3,27.3-27.3
		C112.7,69.3,124.9,81.6,124.9,96.7 M142.9,96.7c0-25-20.3-45.3-45.3-45.3c-25,0-45.3,20.3-45.3,45.3s20.3,45.3,45.3,45.3
		C122.6,141.9,142.9,121.7,142.9,96.7"/>
</g>
</svg>
