<?xml version="1.0" encoding="utf-8"?>
<!-- Generator: Adobe Illustrator 19.0.0, SVG Export Plug-In . SVG Version: 6.00 Build 0)  -->
<svg version="1.1" id="Layer_1" xmlns="http://www.w3.org/2000/svg" xmlns:xlink="http://www.w3.org/1999/xlink" x="0px" y="0px"
	 viewBox="0 0 235 437.2" style="enable-background:new 0 0 235 437.2;" xml:space="preserve">
<style type="text/css">
	.st0{clip-path:url(#XMLID_31_);fill:#D0D2D3;}
	.st1{fill:#FFFFFF;}
	.st2{fill:none;stroke:#FFFFFF;stroke-width:2.126;}
	.st3{clip-path:url(#XMLID_32_);fill:#1F293C;}
	.st4{clip-path:url(#XMLID_32_);fill:#F37721;}
	.st5{fill:none;stroke:#FFFFFF;stroke-width:3;}
	.st6{clip-path:url(#XMLID_33_);fill:#FFFFFF;}
	.st7{clip-path:url(#XMLID_33_);fill:#1F293C;}
	.st8{clip-path:url(#XMLID_34_);fill:#F37721;}
	.st9{clip-path:url(#XMLID_35_);fill:#F37721;}
	.st10{clip-path:url(#XMLID_36_);fill:#F37721;}
	.st11{clip-path:url(#XMLID_37_);fill:#F37721;}
	.st12{clip-path:url(#XMLID_38_);fill:#1F293C;}
	.st13{clip-path:url(#XMLID_38_);fill:#FFFFFF;}
</style>
<g id="XMLID_119_">
	<g id="XMLID_222_">
		<defs>
			<rect id="XMLID_117_" y="0" width="235" height="437.2"/>
		</defs>
		<clipPath id="XMLID_31_">
			<use xlink:href="#XMLID_117_"  style="overflow:visible;"/>
		</clipPath>
		<path id="XMLID_118_" class="st0" d="M22.7,0C22.7,0,0,0,0,22.6v391.9c0,0,0,22.7,22.7,22.7h189.7c0,0,22.7,0,22.7-22.7V23
			c0,0,0-22.7-22.7-22.7L22.7,0z"/>
	</g>
	<rect id="XMLID_116_" x="22.2" y="335.1" class="st1" width="190.6" height="79.5"/>
	<line id="XMLID_115_" class="st2" x1="15.7" y1="334.6" x2="219.3" y2="334.6"/>
	<line id="XMLID_114_" class="st2" x1="15.7" y1="414.6" x2="219.3" y2="414.6"/>
	<g id="XMLID_215_">
		<defs>
			<rect id="XMLID_111_" y="0" width="235" height="437.2"/>
		</defs>
		<clipPath id="XMLID_32_">
			<use xlink:href="#XMLID_111_"  style="overflow:visible;"/>
		</clipPath>
		<path id="XMLID_113_" class="st3" d="M53.3,305.6c0-8.5-6.9-15.4-15.4-15.4H22.5v15.4l0,0c0,0,0,0,0,0c0,1.2,0.2,2.5,0.4,3.6v0h0
			c0,0.1,0.1,0.3,0.1,0.4c0,0,0,0,0,0.1h0c0.1,0.3,0.1,0.5,0.2,0.8v0h0c0,0,0,0,0,0.1v0h0c0,0.1,0.1,0.2,0.1,0.3c0,0,0,0,0,0h0
			c0,0.1,0.1,0.1,0.1,0.2c0,0,0,0,0,0h0c0.1,0.2,0.2,0.4,0.3,0.7v0h0c0,0.1,0.1,0.2,0.1,0.2v0h0c0,0,0,0.1,0.1,0.1c0,0,0,0,0,0.1h0
			c0,0,0,0,0,0v0h0c0,0,0,0,0,0v0h0c0,0,0,0,0,0v0h0c0,0,0,0,0,0.1v0h0c0,0,0,0,0,0.1v0c0,0,0,0,0,0c0,0,0,0.1,0,0.1v0
			c0.1,0.1,0.1,0.2,0.2,0.3v0c0,0,0,0,0,0c0,0,0.1,0.1,0.1,0.1c0,0,0,0,0,0c0,0,0,0,0,0c0,0,0,0.1,0.1,0.1v0c0,0,0,0,0,0
			c0,0,0,0.1,0.1,0.1v0c0,0,0,0,0,0c0,0,0,0,0,0.1v0c0,0,0,0,0,0c0,0,0,0.1,0.1,0.1c0,0,0,0,0,0c0,0,0,0,0,0c0,0,0,0.1,0.1,0.1l0,0
			c0,0,0,0,0,0c0,0,0,0,0,0.1v0c0,0,0,0,0,0c0,0,0,0.1,0.1,0.1c0,0,0,0,0,0l0,0c0,0,0,0,0,0.1v0c0,0,0,0,0,0
			c0.1,0.1,0.1,0.2,0.2,0.2v0c0,0,0,0,0,0c0,0,0,0,0,0.1v0c0,0,0,0,0,0c0,0,0,0,0,0v0c0,0,0,0,0.1,0c0,0,0,0,0.1,0.1v0c0,0,0,0,0,0
			c0,0,0,0,0,0.1v0c0,0,0,0,0,0c0,0,0,0,0,0v0c0,0,0,0,0,0c0,0,0,0,0,0v0c0,0,0,0,0,0c0,0,0,0,0,0.1v0c0,0,0,0,0,0
			c0,0,0,0.1,0.1,0.1v0c0,0,0,0,0,0c0,0,0,0.1,0.1,0.1v0c0,0,0,0,0.1,0.1c0,0.1,0.1,0.1,0.1,0.2v0c0,0,0.1,0.1,0.1,0.1
			c0,0,0.1,0.1,0.1,0.1v0c0,0,0.1,0,0.1,0.1c0,0,0,0,0,0v0.1c0,0,0.1,0,0.1,0c0,0,0,0,0,0c0,0,0,0,0,0.1c0,0,0,0,0.1,0c0,0,0,0,0,0
			c0,0,0,0,0,0c0,0,0,0,0,0v0c0,0,0.1,0.1,0.1,0.1c0.1,0.1,0.1,0.1,0.2,0.2c0,0,0,0.1,0.1,0.1h0c0,0,0.1,0,0.1,0.1c0,0,0,0,0,0
			c0,0,0,0,0.1,0v0c0,0,0,0,0.1,0c0,0,0,0,0,0v0c0,0,0,0,0.1,0c0,0,0.1,0.1,0.1,0.1c0,0,0,0,0,0c0,0,0.1,0,0.1,0.1
			c0,0,0,0.1,0.1,0.1h0c0,0,0,0,0.1,0.1c0,0,0,0,0,0h0c0,0,0,0,0.1,0.1c0,0,0,0,0,0h0c0.1,0.1,0.1,0.1,0.2,0.1v0c0,0,0,0,0.1,0
			c0,0,0,0,0.1,0v0c0,0,0,0,0.1,0c0,0,0,0,0,0c0,0,0,0.1,0.1,0.1h0c0,0,0,0,0,0c0,0,0,0.1,0.1,0.1h0.1c0,0,0,0,0,0v0
			c0,0,0.1,0,0.1,0c0,0,0.1,0,0.1,0.1v0c0,0,0.1,0,0.1,0.1c0,0,0.1,0.1,0.1,0.1c0,0,0,0,0,0h0c0,0,0,0,0.1,0.1c0,0,0,0,0,0
			c0,0,0,0,0,0c0,0,0.1,0,0.1,0.1c0,0,0,0,0,0h0c0,0,0,0,0,0c0,0,0,0,0,0c0,0,0,0,0.1,0c0,0,0.1,0,0.1,0.1c0,0,0,0,0,0.1
			c0,0,0.1,0,0.1,0c0,0,0,0,0.1,0c0,0,0,0,0,0c0,0,0,0,0.1,0c0,0,0,0,0.1,0c0,0,0,0,0,0h0c0,0,0,0,0,0c0,0,0,0,0,0h0c0,0,0,0,0.1,0
			c0,0,0,0,0,0h0c0,0,0,0,0,0v0h0c0,0,0,0,0,0v0h0c0,0,0.1,0,0.1,0.1c0,0,0,0,0,0h0c0,0,0,0,0.1,0v0h0c0,0,0,0,0.1,0c0,0,0,0,0,0
			c0,0,0.1,0,0.1,0c0,0,0,0,0.1,0v0h0c0,0,0,0,0,0v0h0c0,0,0,0,0,0v0h0.1c0,0,0,0,0,0v0h0.1c0,0,0,0,0,0v0h0.1c0,0,0,0,0,0
			c0,0,0,0,0,0h0.1c0,0,0,0,0,0v0h0c0,0,0,0,0,0v0h0c0,0,0,0,0,0c0,0,0,0,0,0c0,0,0.1,0,0.1,0c0,0,0,0,0.1,0v0c0,0,0,0,0,0
			c0,0,0.1,0,0.1,0v0h0c0,0,0,0,0,0v0h0c0,0,0,0,0.1,0v0h0c0,0,0,0,0,0v0h0c0,0,0,0,0.1,0v0h0c0,0,0,0,0,0v0c0,0,0.1,0,0.1,0
			c0,0,0.1,0,0.1,0v0c0,0,0.1,0,0.1,0c0,0,0,0,0,0v0c0.1,0,0.1,0,0.2,0c0,0,0.1,0,0.1,0v0h0.1c0,0,0,0,0,0v0c0.1,0,0.1,0,0.2,0
			c0,0,0.1,0,0.1,0v0h0c0,0,0,0,0,0v0c0,0,0.1,0,0.1,0c0.1,0,0.2,0,0.2,0.1v0h0c0,0,0,0,0,0v0h0.1c0,0,0,0,0,0v0c0.1,0,0.1,0,0.2,0
			c0,0,0.1,0,0.1,0v0H34c0,0,0,0,0,0v0h0.1c0,0,0,0,0,0v0c0.1,0,0.1,0,0.2,0c0,0,0.1,0,0.1,0v0h0c0,0,0,0,0,0v0h0.1c0,0,0,0,0,0v0
			h0.1c0.2,0,0.3,0.1,0.5,0.1c0.1,0,0.2,0,0.2,0.1h0.1c0,0,0.1,0,0.1,0v0h0c0,0,0.1,0,0.1,0v0h0.1c0,0,0.1,0,0.1,0v0
			c0.1,0,0.1,0,0.2,0c0.2,0,0.4,0,0.5,0v0h0.2c0.1,0,0.3,0,0.4,0c0.1,0,0.3,0,0.5,0c0,0,0,0,0,0h0c0.2,0,0.4,0,0.5,0
			c0.1,0,0.3,0,0.4,0h0.2v0c0.2,0,0.3,0,0.5,0c0.1,0,0.1,0,0.2,0v0c0,0,0.1,0,0.1,0H40v0c0,0,0.1,0,0.1,0h0.1v0c0,0,0.1,0,0.1,0h0.2
			v0c0,0,0,0,0,0h0.1v0c0,0,0.1,0,0.1,0h0.1v0c0,0,0.1,0,0.1,0h0v0c0.1,0,0.2,0,0.2,0c0,0,0.1,0,0.1,0v0c0,0,0,0,0,0h0v0
			c0.1,0,0.1,0,0.2,0c0.1,0,0.1,0,0.2,0v0c0,0,0,0,0,0h0.1v0c0,0,0,0,0,0h0.1v0c0,0,0,0,0.1,0H42v0c0,0,0.1,0,0.1,0c0,0,0.1,0,0.1,0
			v0c0,0,0,0,0,0h0v0c0.1,0,0.2,0,0.2-0.1c0,0,0.1,0,0.1,0v0c0,0,0,0,0,0h0v0c0,0,0.1,0,0.1,0c0.1,0,0.1,0,0.2,0v0c0,0,0,0,0,0
			c0,0,0.1,0,0.1,0v0c0,0,0,0,0,0h0v0c0,0,0,0,0.1,0c0,0,0.1,0,0.1,0v0c0,0,0,0,0,0h0v0c0,0,0,0,0,0h0v0c0,0,0,0,0,0h0.1
			c0,0,0,0,0,0c0,0,0,0,0.1,0h0v0c0,0,0,0,0,0h0v0c0,0,0,0,0.1,0h0v0c0,0,0,0,0,0h0v0c0,0,0,0,0,0h0v0c0,0,0,0,0,0h0v0c0,0,0,0,0,0
			h0v0c0,0,0,0,0.1,0c0,0,0.1,0,0.1,0v0c0,0,0,0,0,0h0v0c0,0,0,0,0,0h0.1c0,0,0,0,0,0c0,0,0,0,0,0h0v0c0,0,0.1,0,0.1,0
			c0.1,0,0.1,0,0.2-0.1c0,0,0,0,0,0c0,0,0,0,0.1,0h0c0,0,0,0,0,0c0,0,0,0,0.1,0h0v0c0,0,0,0,0,0h0v0c0,0,0,0,0.1,0h0c0,0,0,0,0,0
			c0,0,0.1,0,0.1-0.1h0c0,0,0,0,0,0c0,0,0.1,0,0.1-0.1c0,0,0,0,0.1,0c0,0,0,0,0,0c0,0,0,0,0.1,0h0.1v0c0,0,0.1,0,0.1,0c0,0,0,0,0,0
			c0,0,0,0,0.1,0c0,0,0.1,0,0.1,0c0,0,0,0,0,0c0,0,0,0,0,0h0l0.1-0.1c0,0,0,0,0,0h0.1c0,0,0,0,0-0.1c0,0,0,0,0.1,0c0,0,0,0,0.1,0
			c0,0,0,0,0,0c0,0,0.1,0,0.1-0.1c0,0,0.1,0,0.1,0v0c0.1-0.1,0.2-0.1,0.3-0.2c0.1-0.1,0.1-0.1,0.3-0.1v0c0,0,0.1,0,0.1-0.1
			c0,0,0.1,0,0.1-0.1c0,0,0,0,0,0c0,0,0,0,0.1,0c0,0,0,0,0,0c0,0,0,0,0,0c0,0,0,0,0.1,0h0c0,0,0,0,0,0c0,0,0.1-0.1,0.1-0.1
			c0,0,0,0,0,0l0,0c0,0,0,0,0.1-0.1h0c0,0,0,0,0.1-0.1c0.1-0.1,0.1-0.1,0.2-0.2c0,0,0,0,0,0c0,0,0,0,0.1-0.1h0v0c0,0,0,0,0,0
			c0,0,0,0,0.1,0c0,0,0.1-0.1,0.1-0.1c0,0,0,0,0,0h0.1c0-0.1,0,0,0.1-0.1v0h0c0,0,0,0,0-0.1c0,0,0,0,0.1-0.1c0,0,0,0,0,0
			c0,0,0,0,0,0c0,0,0,0,0.1-0.1h0v0c0.1-0.1,0.2-0.2,0.2-0.3h0c0,0,0,0,0,0c0,0,0,0,0-0.1c0,0,0,0,0.1,0c0,0,0,0,0-0.1c0,0,0,0,0,0
			h0c0,0,0,0,0-0.1c0,0,0.1-0.1,0.1-0.1c0,0,0,0,0.1-0.1c0,0,0.1-0.1,0.1-0.1c0,0,0.1-0.1,0.1-0.1v0c0,0,0.1-0.1,0.1-0.1
			c0,0,0,0,0,0v0c0,0,0.1-0.1,0.1-0.1c0,0,0,0,0,0v0c0,0,0-0.1,0.1-0.1c0,0,0,0,0.1,0v0c0,0,0,0,0-0.1c0,0,0,0,0.1,0v0
			c0,0,0,0,0-0.1c0,0,0,0,0.1,0v0c0,0,0,0,0,0c0,0,0,0,0.1,0v0c0,0,0,0,0,0c0,0,0,0,0.1,0c0,0,0,0,0-0.1c0,0,0,0,0,0c0,0,0,0,0,0v0
			c0,0,0,0,0,0c0,0,0,0,0,0c0,0,0,0,0,0c0,0,0.1-0.1,0.1-0.1c0,0,0,0,0,0c0,0,0,0,0,0c0,0,0-0.1,0.1-0.1c0,0,0,0,0,0c0,0,0,0,0,0
			c0,0,0-0.1,0.1-0.1c0,0,0,0,0,0c0,0,0,0,0,0c0,0,0,0,0,0h0c0,0,0,0,0,0c0,0,0-0.1,0.1-0.1l0,0v0c0,0,0,0,0,0c0,0,0,0,0,0
			c0,0,0,0,0-0.1c0,0,0-0.1,0-0.1c0,0,0,0,0,0c0,0,0,0,0-0.1c0,0,0.1-0.1,0.1-0.1c0,0,0,0,0,0v0c0,0,0,0,0,0h0v0c0,0,0,0,0-0.1
			c0,0,0,0,0,0v0c0-0.1,0.1-0.2,0.1-0.2c0,0,0,0,0,0v0c0,0,0,0,0-0.1h0v0c0,0,0,0,0-0.1h0v0c0,0,0-0.1,0.1-0.1c0,0,0,0,0,0v0
			c0,0,0,0,0,0h0v0c0,0,0,0,0,0h0v0c0,0,0-0.1,0-0.1c0,0,0,0,0,0v0c0,0,0,0,0,0h0v0c0,0,0,0,0,0h0v0c0,0,0-0.1,0-0.1c0,0,0,0,0,0v0
			c0,0,0,0,0,0h0v0c0,0,0,0,0,0h0v0c0,0,0,0,0-0.1h0v0c0,0,0,0,0-0.1h0c0,0,0,0,0,0c0,0,0-0.1,0-0.1h0c0,0,0,0,0,0
			c0-0.1,0.1-0.2,0.1-0.3h0v0c0.1-0.1,0.1-0.3,0.1-0.4h0c0,0,0,0,0,0c0,0,0-0.1,0-0.1h0c0,0,0-0.1,0-0.1c0-0.1,0.1-0.2,0.1-0.3h0
			c0,0,0,0,0,0c0.1-0.3,0.2-0.6,0.3-0.9h0c0,0,0,0,0-0.1c0-0.1,0-0.2,0.1-0.3h0v0c0,0,0-0.1,0-0.1h0c0,0,0,0,0,0
			C53.1,308,53.3,306.8,53.3,305.6"/>
		<path id="XMLID_112_" class="st4" d="M165.7,302.3"/>
	</g>
	<path id="XMLID_110_" class="st5" d="M117.5,302.3"/>
	<g id="XMLID_148_">
		<defs>
			<rect id="XMLID_53_" y="0" width="235" height="437.2"/>
		</defs>
		<clipPath id="XMLID_33_">
			<use xlink:href="#XMLID_53_"  style="overflow:visible;"/>
		</clipPath>
		<path id="XMLID_210_" class="st6" d="M45.8,306.1v2.3v1.9c0,0.1,0,0.6,0,0.7c0,0,0,0.1,0,0.1c-0.1,0,0,0-0.1,0h-2.3h-1
			c0,0-0.1-0.1-0.1-0.1v-4.7c0-0.4,0-1-0.1-1.3c0-0.1,0-0.2,0-0.4h0v-0.1h0v-0.1h0v-0.1h0v-0.1h0v-0.1l-0.1-0.1v-0.1c0,0,0,0-0.1,0
			c0,0,0-0.1,0-0.1c0,0,0,0-0.1,0v-0.1c0,0,0,0-0.1,0c0-0.1-0.1-0.1-0.1-0.2h-0.1c0,0,0,0,0-0.1h-0.1c0,0,0,0,0-0.1h-0.1v0h-0.1v0
			h-0.1v0h-0.1v0c-0.2,0-0.3,0-0.5,0v0h-0.2v0h-0.3v0h-0.1v0h-0.1v0H40v0h-0.1v0h-0.1v0h-0.1c0,0,0,0.1-0.1,0.1h-0.1v0
			c0,0,0,0,0,0.1c0,0-0.1,0-0.1,0v0.1c-0.1,0-0.1,0.1-0.2,0.1c0,0,0,0.1,0,0.1h-0.1c0,0.1,0,0.1-0.1,0.2c0,0,0,0-0.1,0v0.1h0
			c0,0.1,0,0.1-0.1,0.2h0v0.1h0v0.1h0v0.2h0v3.9v1.5v0.5c0,0,0,0,0,0.1h0c0,0.1,0,0.1,0,0.2c-0.3,0-0.6,0-0.9,0h-1.6
			c-0.2,0-0.7,0-0.8,0c0,0-0.1,0-0.1,0V304v-2.1c0-0.3-0.1-0.7,0-1c0.3,0,0.6,0,0.9,0H38c0.2,0,0.8,0,0.8,0.1c0.1,0.1,0,0.2,0,0.4
			v0.8H39c0.1-0.2,0.2-0.3,0.3-0.5c0.1-0.1,0.2-0.1,0.2-0.2c0,0,0-0.1,0.1-0.1h0.1l0.1-0.1h0.1c0,0,0,0,0-0.1c0,0,0.1,0,0.1,0
			c0,0,0,0,0-0.1H40c0,0,0,0,0-0.1h0.1v0h0.1v0h0.1c0,0,0,0,0-0.1h0.1v0c0.1,0,0.1,0,0.2,0v0h0.1v0c0.1,0,0.2,0,0.4-0.1v0h0.1v0h0.2
			v0h0.3v0h0.2v0c0.1,0,0.2,0,0.3,0v0c0.2,0,0.3,0,0.5,0v0c0.2,0,0.3,0.1,0.5,0.1v0h0.1v0c0.1,0,0.2,0,0.3,0.1c0,0,0,0,0,0.1h0.1v0
			h0.1v0h0.1c0,0,0,0.1,0.1,0.1h0.1c0,0,0,0,0,0.1c0.1,0,0.1,0.1,0.2,0.1c0,0.1,0.1,0.1,0.2,0.1v0.1c0.1,0,0.2,0.1,0.2,0.2
			c0.1,0.1,0.2,0.1,0.2,0.2v0.1c0,0,0.1,0.1,0.1,0.1v0.1c0,0,0.1,0,0.1,0.1c0,0.1,0,0.1,0.1,0.2c0,0,0.1,0,0.1,0.1v0.1
			c0,0,0,0,0.1,0v0.1h0v0.1h0v0.1h0v0.1h0c0,0,0,0.1,0,0.1h0c0,0.1,0,0.1,0,0.2h0v0.1h0c0,0.1,0,0.2,0.1,0.3h0v0.1h0v0.1h0v0.2h0
			v0.2h0v0.2h0v0.2h0v0.4C45.8,305.3,45.8,305.8,45.8,306.1 M33.9,298.1L33.9,298.1l0,0.1h0v0.1h0c0,0.1,0,0.2,0,0.2c0,0,0,0-0.1,0
			v0.1h0v0.1l-0.1,0.1v0.1c0,0-0.1,0-0.1,0.1v0.1c0,0-0.1,0-0.1,0.1v0.1l-0.1,0.1h-0.1c0,0,0,0,0,0.1h0c0,0-0.1,0.1-0.1,0.1h-0.1
			c0,0,0,0.1-0.1,0.1h-0.1v0h-0.1v0h-0.1c0,0,0,0,0,0.1c-0.1,0-0.2,0-0.3,0.1c-0.1,0-0.6,0.2-0.8,0.1v0h-0.2v0h-0.1v0
			c-0.1,0-0.2,0-0.3-0.1c0,0,0,0,0-0.1H31v0c-0.1,0-0.1,0-0.2,0c0,0,0-0.1-0.1-0.1c0,0-0.1,0-0.1,0v0h-0.1c0,0,0,0,0-0.1
			c-0.1-0.1-0.1-0.1-0.2-0.2v-0.1h0c0,0,0-0.1,0-0.1c0,0-0.1,0-0.1-0.1v-0.1h0c0-0.1,0-0.1-0.1-0.2h0c0-0.1,0-0.2-0.1-0.3h0
			c0-0.2,0-0.5,0-0.7h0v-0.2h0v-0.1h0c0-0.1,0-0.1,0-0.2h0v-0.1c0,0,0,0,0.1,0c0,0,0-0.1,0-0.1c0,0,0.1,0,0.1-0.1v-0.1
			c0,0,0.1,0,0.1-0.1v-0.1c0,0,0,0,0.1,0c0-0.1,0.1-0.1,0.1-0.2h0.1c0,0,0.1-0.1,0.1-0.1h0.1c0,0,0-0.1,0.1-0.1H31v0h0.1v0
			c0,0,0.1,0,0.1,0v0c0.1,0,0.2,0,0.4-0.1v0h0.1v0h0.5v0h0.1v0h0.2v0h0.1v0h0.1c0,0,0,0,0,0.1h0.1v0c0.1,0,0.1,0,0.2,0
			c0,0,0,0.1,0.1,0.1h0.1c0,0,0.1,0.1,0.1,0.1h0.1v0h0c0.1,0.1,0,0.1,0.1,0.1c0,0.1,0,0.1,0.1,0.2h0c0,0,0,0.1,0,0.1c0,0,0,0,0.1,0
			v0.1h0v0.1h0c0,0.1,0,0.1,0.1,0.2h0C33.8,297.3,33.9,297.9,33.9,298.1 M30.2,303.8v-2v-0.7c0,0,0-0.1,0-0.1h0V301c0,0,0,0,0.1-0.1
			h3.3c0,0,0,0,0.1,0.1v7.2v2c0,0.3,0,0.7-0.1,0.9h-2.3c-0.3,0-0.8,0.1-1-0.1C30.2,308.8,30.2,306.2,30.2,303.8"/>
		<path id="XMLID_106_" class="st6" d="M47.6,161c0,0.1,0,0.2-0.1,0.2h0v0.1h0c-0.1,0.1,0,0.1-0.1,0.1c0,0.1-0.1,0.1-0.1,0.2h0v0.1
			c0,0-0.1,0.1-0.2,0.1v0.1c0,0-0.1,0-0.1,0c0,0,0,0.1,0,0.1h0c-0.1,0.1-0.1,0.2-0.2,0.2h-0.1c0,0.1,0,0.1-0.2,0.2v0.1
			c0,0-0.1,0-0.1,0c0,0.1-0.1,0.1-0.2,0.2H46v0.1c0,0-0.1,0-0.1,0c0,0,0,0.1-0.1,0.1h-0.1v0c0,0-0.1,0.1-0.1,0.1v1.4h0v0.3h0v0.3h0
			v0.3h0v0.3h0v0.2h0v0.2h0c0,0.1,0,0.3,0,0.4h0v0.1h0v0.1h0c0,0.1,0,0.2,0,0.3h0v0.1h0v0.1h0c0,0.1,0,0.3-0.1,0.4h0v0.1h0
			c0,0.1,0,0.2,0,0.2h0v0.1h0v0.1h0v0.1h0v0.1h0v0.1c0,0-0.1,0-0.1,0v0.1h0c0,0.1,0,0.2,0,0.2c0,0-0.1,0-0.1,0.1c0,0.1,0,0.2,0,0.2
			c0,0-0.1,0-0.1,0.1c0,0.1,0,0.1,0,0.2h0v0.1c0,0,0,0-0.1,0v0.1c0,0,0,0-0.1,0v0.1c0,0-0.1,0-0.1,0c0,0,0,0.1,0,0.2
			c0,0-0.1,0-0.1,0c0,0.1,0,0.1,0,0.2c0,0,0,0-0.1,0v0.1c0,0-0.1,0-0.1,0.1v0.1c0,0-0.1,0-0.1,0.1v0.1c0,0,0,0-0.1,0v0.1h0
			c-0.1,0.1-0.1,0.1-0.1,0.2h-0.1c0,0,0,0.1,0,0.1c0,0-0.1,0-0.1,0.1v0.1c0,0-0.1,0-0.1,0c0,0,0,0.1,0,0.1h0
			c-0.1,0.1-0.1,0.1-0.1,0.2h-0.1c0,0,0,0.1,0,0.1c0,0-0.1,0.1-0.2,0.1v0.1c0,0-0.1,0.1-0.2,0.1v0.1c0,0-0.1,0.1-0.2,0.1
			c0,0,0,0.1,0,0.1c0,0-0.1,0-0.1,0v0.1c-0.1,0.1-0.1,0-0.2,0.2c-0.1,0-0.1,0.1-0.2,0.1v0h-0.1c-0.1,0.1-0.1,0.2-0.2,0.2
			c0,0-0.1,0-0.1,0l-0.1,0.1h-0.1c0,0-0.1,0.1-0.1,0.1h-0.1c0,0.1-0.1,0.1-0.1,0.2h-0.1c0,0-0.1,0.1-0.1,0.1h-0.1c0,0,0,0.1,0,0.1
			h-0.1c0,0-0.1,0.1-0.1,0.1h-0.1c0,0,0,0.1-0.1,0.1c-0.1,0-0.2,0.1-0.2,0.1c0,0,0,0.1-0.1,0.1h-0.1c0,0,0,0.1,0,0.1h-0.1v0h-0.1
			l-0.1,0.1h-0.1c0,0,0,0.1,0,0.1h-0.1v0h-0.1v0h-0.1c0,0,0,0.1,0,0.1h-0.1v0h-0.1v0H39v0h-0.1v0c0,0-0.1,0-0.2,0v0
			c-0.1,0-0.1,0-0.2,0v0h-0.1v0c-0.1,0-0.2,0.1-0.3,0.1v0H38v0c-0.1,0-0.3,0.1-0.4,0.1v0h-0.1v0h-0.1v0c-0.2,0-0.3,0.1-0.5,0.1v0
			h-0.1v0h-0.2c-0.2,0.1-0.4,0.1-0.6,0.1c-0.3,0-0.5,0-0.8,0v0h-0.6v0c-0.2,0.1-0.6,0-0.7,0h-0.5v0h-0.5v0h-0.3
			c-0.2,0-0.4-0.1-0.6-0.1h-0.2v0h-0.1v0c-0.1,0-0.2,0-0.3,0v0h-0.2v0h-0.1v0h-0.1v0c-0.1,0-0.2,0-0.3,0v0h-0.1v0
			c-0.1,0-0.2,0-0.2,0v0h-0.1v0c-0.1,0-0.1,0-0.2,0v0c-0.1,0-0.2,0-0.2,0v0c-0.1,0-0.1,0-0.2,0v0h-0.1v0h-0.1v0h-0.1v0h-0.1
			c0,0,0,0,0-0.1h-0.1v0h-0.1v0h-0.1c0,0,0,0,0-0.1h-0.1v0c-0.1,0-0.1,0-0.2,0c0,0,0,0,0-0.1h-0.1v0c-0.1,0-0.1,0-0.2,0
			c0,0,0-0.1-0.1-0.1h-0.1c0,0,0,0-0.1-0.1c0-0.1,0-0.1,0-0.2c0.4,0,1,0.1,1.4,0h0.5v0h0.3v0h0.1v0h0.2v0c0.1,0,0.2,0,0.3,0v0h0.2v0
			h0.1v0c0.1,0,0.3-0.1,0.4-0.1v0c0,0,0.1,0,0.2,0v0H32v0c0,0,0.1,0,0.2,0v0h0.1v0h0.1v0h0.1c0,0,0-0.1,0-0.1h0.1v0h0.1v0h0.1
			c0,0,0-0.1,0-0.1h0.1l0.1-0.1h0.1c0,0,0-0.1,0-0.1c0.1,0,0.1,0,0.2,0v0c0,0,0.1,0,0.1,0c0,0,0-0.1,0.1-0.1h0.1c0,0,0-0.1,0-0.1
			h0.1v0h0.1c0,0,0-0.1,0.1-0.1v-0.1c-0.1,0-0.3,0-0.4,0v0h-0.2v0H33v0h-0.1v0c-0.1,0-0.2,0-0.3,0v0c-0.1,0-0.2,0-0.2-0.1v0h-0.1
			c0,0,0,0,0-0.1h-0.1v0c-0.1,0-0.2,0-0.2-0.1c-0.2-0.2-0.5-0.4-0.7-0.6c0-0.1-0.1-0.1-0.2-0.2c0,0,0,0-0.1,0c0,0,0-0.1,0-0.1h-0.1
			c0-0.1-0.1-0.1-0.1-0.2h0c0-0.1,0-0.1,0-0.2c0,0,0,0-0.1,0v-0.1c0,0,0,0-0.1,0v-0.1c0,0-0.1,0-0.1,0v-0.1h0v-0.1h0v-0.1h0v-0.1
			c0,0-0.1,0-0.1,0c0-0.1,0-0.1-0.1-0.2c0-0.1,0-0.2,0-0.2c0.5,0,1,0.1,1.5,0v-0.1c-0.1,0-0.2-0.1-0.3-0.1h-0.2v0
			c-0.1,0-0.2-0.1-0.2-0.1v0c0,0-0.1,0-0.2,0c0,0,0-0.1,0-0.1c-0.1,0-0.1,0-0.2,0c0,0,0-0.1,0-0.1c-0.1-0.1-0.2-0.1-0.3-0.1V168
			c0,0-0.1,0-0.1,0c0-0.1-0.1-0.1-0.1-0.2h-0.1c0,0,0-0.1,0-0.1c0,0-0.1-0.1-0.2-0.1c-0.2-0.2-0.4-0.5-0.6-0.7c0-0.1,0-0.2-0.1-0.2
			c0,0,0,0-0.1,0v-0.1h0v-0.1h0c0-0.1-0.1-0.2-0.1-0.2h0V166h0v-0.1h0v-0.1h0v-0.2h0c-0.1-0.2,0-0.4-0.1-0.5c0-0.2,0-0.4,0-0.5
			c0.2,0,0.3,0.1,0.4,0.1v0h0.1v0h0.1v0c0.3,0.1,0.6,0.2,0.9,0.2v0h0c0-0.1,0-0.1-0.1-0.1v0h-0.1v0c0,0-0.1,0-0.1,0
			c-0.1-0.2-0.1-0.1-0.2-0.2c0,0,0-0.1,0-0.1c0,0-0.1,0-0.1,0v-0.1c-0.1,0-0.1-0.1-0.2-0.1v-0.1c0,0-0.1,0-0.1,0v-0.1
			c0,0-0.1-0.1-0.1-0.1V164c0,0,0,0-0.1,0v-0.1l-0.1-0.1v-0.1h0v-0.1c0,0,0,0-0.1,0v-0.1h0v-0.1h0v-0.1c0,0-0.1,0-0.1,0
			c0-0.1,0-0.2,0-0.3h0v-0.1h0v-0.1h0v-0.2c-0.1-0.2-0.1-0.5-0.1-0.8v-0.6h0v-0.2h0v-0.2h0v-0.1h0v-0.2h0v-0.2h0
			c0-0.1,0-0.2,0.1-0.2h0v-0.1h0v-0.1h0V160h0c0,0,0.1-0.1,0.1-0.1c0.2,0,0.2,0.1,0.3,0.2v0.1h0.1c0,0,0,0.1,0,0.1
			c0,0,0.1,0,0.1,0.1c0.1,0.1,0.1,0.2,0.2,0.2c0.2,0.2,0.4,0.4,0.6,0.5c0,0,0.1,0.1,0.1,0.1c0.1,0.1,0.3,0.2,0.4,0.3v0.1
			c0.1,0,0.2,0.1,0.2,0.1v0h0.1c0,0,0.1,0.1,0.1,0.1h0.1c0,0,0,0.1,0.1,0.1h0.1c0,0,0.1,0.1,0.1,0.1H32c0,0,0,0.1,0.1,0.1
			c0,0,0.1,0,0.1,0v0h0.1c0,0,0,0.1,0.1,0.1h0.1v0h0.1c0,0,0,0.1,0,0.1h0.1l0.1,0.1h0.1v0h0.1v0H33c0,0,0,0,0,0.1h0.1
			c0,0,0,0.1,0,0.1h0.1v0h0.1v0h0.1v0h0.1v0h0.1c0,0,0,0,0,0.1h0.2v0c0.1,0,0.2,0,0.2,0.1v0c0.1,0,0.2,0,0.2,0v0c0,0,0.1,0,0.2,0v0
			h0.2v0h0.1v0h0.1v0h0.1v0c0.1,0,0.2,0,0.3,0v0h0.1v0h0.1v0c0.2,0,0.4,0.1,0.5,0.1v0H36v0h0.3v0h0.3v0h0.3c0.2,0.1,0.6,0.1,0.8,0.1
			c0-0.1-0.1-0.2-0.1-0.3c-0.1-0.2,0-1,0-1.1v-0.2h0v-0.1h0c0-0.2,0-0.3,0.1-0.5h0c0-0.1,0-0.1,0-0.2h0v-0.1h0v-0.1c0,0,0.1,0,0.1,0
			v-0.1h0c0,0,0-0.1,0-0.2c0,0,0.1,0,0.1,0c0-0.1,0-0.2,0.1-0.2h0c0.1-0.1,0.1-0.1,0.1-0.2h0.1v0c0,0,0,0,0,0v0c0,0,0.1-0.1,0.2-0.1
			v-0.1c0.1,0,0.2-0.1,0.2-0.2c0.2,0,0.1-0.1,0.3-0.2v-0.1c0.2,0,0.3-0.2,0.5-0.3h0.1l0.1-0.1h0.1v0h0.1c0,0,0-0.1,0-0.1H40
			c0,0,0,0,0-0.1h0.1v0h0.1v0h0.2v0h0.1v0h0.2v0h0.2v0h0.3c0.3-0.1,0.9-0.1,1.3,0h0.2v0h0.1v0h0.1v0c0.1,0,0.2,0,0.3,0v0
			c0.1,0,0.1,0,0.2,0v0c0.1,0,0.2,0.1,0.3,0.1c0,0,0,0.1,0,0.1h0.1v0c0,0,0.1,0.1,0.1,0.1h0.1c0,0,0,0,0,0.1
			c0.2,0.2,0.5,0.3,0.6,0.5c0.2,0,0.3-0.1,0.4-0.1c0.1,0,0.2,0,0.3,0v0h0.1v0h0.1v0h0.2v0c0.1,0,0.2,0,0.2,0v0h0.1v0H46v0h0.1v0
			c0.1,0,0.1,0,0.2,0v0c0.1,0,0.2,0,0.2,0c0,0,0,0,0-0.1h0.1v0c0.1-0.1,0.2-0.1,0.3-0.2c0.1,0,0.1,0,0.2,0c0,0.2,0,0.2-0.1,0.3h0
			c0,0.1,0,0.1,0,0.2c0,0,0,0-0.1,0c0,0.1,0,0.2-0.1,0.2c0,0,0,0-0.1,0v0.1c0,0-0.1,0-0.1,0v0.1c0,0-0.1,0-0.1,0.1v0.1
			c0,0,0,0-0.1,0v0c0,0-0.1,0-0.1,0v0.1h0c-0.1,0.1-0.1,0.1-0.1,0.2c-0.1,0-0.1,0-0.2,0.2c-0.1,0-0.1,0.1-0.2,0.1v0
			c-0.1,0.1-0.2,0.1-0.3,0.2h0.2v0h0.1v0c0.1,0,0.3,0,0.4,0v0h0.1v0c0.1,0,0.2,0,0.3,0v0c0.1,0,0.2,0,0.2,0v0H47v0h0.2v0h0.1v0
			c0.1,0,0.1,0,0.2-0.1C47.5,161,47.5,161,47.6,161"/>
		<path id="XMLID_105_" class="st7" d="M37.9,151.6L37.9,151.6H22.5V167h0c0,0,0,0,0,0c0,8.5,6.9,15.4,15.4,15.4s15.4-6.9,15.4-15.4
			C53.3,158.5,46.4,151.6,37.9,151.6"/>
		<path id="XMLID_104_" class="st6" d="M47.3,162c0,0.1,0,0.1-0.1,0.2h0v0.1h0c-0.1,0.1,0,0.1-0.1,0.1c0,0.1-0.1,0.1-0.1,0.2h0v0.1
			c0,0-0.1,0.1-0.1,0.1v0.1c0,0-0.1,0-0.1,0c0,0,0,0.1,0,0.1h0c-0.1,0.1-0.1,0.1-0.2,0.2h-0.1c0,0.1,0,0.1-0.1,0.1v0.1
			c0,0-0.1,0-0.1,0c0,0.1-0.1,0.1-0.1,0.2H46v0.1c0,0-0.1,0-0.1,0c0,0,0,0.1-0.1,0.1h-0.1v0c0,0-0.1,0-0.1,0.1v1.2h0v0.2h0v0.3h0
			v0.3h0v0.2h0v0.1h0v0.1h0c0,0.1,0,0.3,0,0.4h0v0.1h0v0.1h0c0,0.1,0,0.2,0,0.3h0v0.1h0v0.1h0c0,0.1,0,0.2-0.1,0.3h0v0.1h0
			c0,0.1,0,0.1,0,0.2h0v0.1h0v0.1h0v0.1h0v0.1h0v0.1c0,0,0,0-0.1,0v0.1h0c0,0.1,0,0.1,0,0.2c0,0-0.1,0-0.1,0.1c0,0.1,0,0.1,0,0.2
			c0,0-0.1,0-0.1,0.1c0,0.1,0,0.1,0,0.2h0v0.1c0,0,0,0-0.1,0v0.1c0,0,0,0-0.1,0v0.1c0,0,0,0-0.1,0c0,0,0,0.1,0,0.1c0,0,0,0-0.1,0
			c0,0,0,0.1,0,0.1c0,0,0,0-0.1,0v0.1c0,0-0.1,0-0.1,0.1v0.1c0,0-0.1,0-0.1,0.1v0.1c0,0,0,0-0.1,0v0.1h0c0,0.1-0.1,0.1-0.1,0.2h-0.1
			c0,0,0,0.1,0,0.1c0,0-0.1,0-0.1,0.1v0.1c0,0,0,0-0.1,0c0,0,0,0.1,0,0.1h0c0,0.1-0.1,0.1-0.1,0.2h-0.1c0,0,0,0.1,0,0.1
			c0,0-0.1,0.1-0.1,0.1v0.1c0,0-0.1,0-0.1,0.1v0.1c0,0-0.1,0-0.1,0.1c0,0,0,0.1,0,0.1c0,0-0.1,0-0.1,0v0.1c-0.1,0.1-0.1,0-0.2,0.2
			c-0.1,0-0.1,0.1-0.2,0.1v0h-0.1c-0.1,0.1-0.1,0.1-0.2,0.2c0,0-0.1,0-0.1,0c0,0,0,0.1-0.1,0.1h-0.1c0,0,0,0.1-0.1,0.1h-0.1
			c0,0-0.1,0.1-0.1,0.1h-0.1c0,0,0,0.1-0.1,0.1h-0.1c0,0,0,0,0,0.1H41c0,0,0,0.1-0.1,0.1h-0.1c0,0,0,0.1-0.1,0.1
			c-0.1,0-0.1,0-0.2,0.1c0,0,0,0.1-0.1,0.1h-0.1c0,0,0,0,0,0.1h-0.1v0h-0.1l-0.1,0.1H40c0,0,0,0,0,0.1h-0.1v0h-0.1v0h-0.1
			c0,0,0,0,0,0.1h-0.1v0h-0.1v0h-0.1v0h-0.1v0c0,0-0.1,0-0.1,0v0c-0.1,0-0.1,0-0.2,0v0H39v0c-0.1,0-0.2,0-0.3,0.1v0h-0.1v0
			c-0.1,0-0.2,0-0.3,0.1v0h-0.1v0h-0.1v0c-0.2,0-0.3,0-0.4,0.1v0h-0.1v0h-0.2c-0.2,0-0.4,0.1-0.6,0.1c-0.2,0-0.5,0-0.7,0v0h-0.6v0
			c-0.2,0.1-0.5,0-0.7,0h-0.5v0h-0.4v0h-0.2c-0.2,0-0.4-0.1-0.6-0.1h-0.2v0h-0.1v0c-0.1,0-0.2,0-0.3,0v0h-0.1v0h-0.1v0h-0.1v0
			c-0.1,0-0.2,0-0.3,0v0h-0.1v0c-0.1,0-0.1,0-0.2,0v0h-0.1v0c-0.1,0-0.1,0-0.2,0v0c-0.1,0-0.1,0-0.2,0v0c0,0-0.1,0-0.1,0v0h-0.1v0
			h-0.1v0h-0.1v0h-0.1c0,0,0,0,0-0.1h-0.1v0h-0.1v0h-0.1c0,0,0,0,0-0.1h-0.1v0c0,0-0.1,0-0.1,0c0,0,0,0,0-0.1H30v0
			c-0.1,0-0.1,0-0.2,0c0,0,0-0.1-0.1-0.1h-0.1c0,0,0,0-0.1-0.1c0-0.1,0-0.1,0-0.2c0.4,0,0.9,0.1,1.3,0h0.4v0h0.3v0h0.1v0H32v0
			c0.1,0,0.2,0,0.3,0v0h0.1v0h0.1v0c0.1,0,0.2,0,0.3-0.1v0c0,0,0.1,0,0.1,0v0h0.1v0c0,0,0.1,0,0.1,0v0h0.1v0h0.1v0h0.1
			c0,0,0,0,0-0.1h0.1v0h0.1v0h0.1c0,0,0,0,0-0.1h0.1l0.1-0.1h0.1c0,0,0,0,0-0.1c0,0,0.1,0,0.1,0v0c0,0,0.1,0,0.1,0
			c0,0,0-0.1,0.1-0.1h0.1c0,0,0,0,0-0.1h0.1v0h0.1c0,0,0,0,0.1-0.1v-0.1c-0.1,0-0.3,0-0.4,0v0h-0.2v0H34v0H34v0c-0.1,0-0.2,0-0.2,0
			v0c-0.1,0-0.1,0-0.2-0.1v0h-0.1c0,0,0,0,0-0.1h-0.1v0c-0.1,0-0.1,0-0.2-0.1c-0.2-0.2-0.4-0.3-0.7-0.5c0-0.1-0.1-0.1-0.1-0.2
			c0,0,0,0-0.1,0c0,0,0-0.1,0-0.1h-0.1c0-0.1-0.1-0.1-0.1-0.2h0c0,0,0-0.1,0-0.1c0,0,0,0-0.1,0v-0.1c0,0,0,0-0.1,0v-0.1
			c0,0,0,0-0.1,0v-0.1h0v-0.1h0v-0.1h0v-0.1c0,0,0,0-0.1,0c0-0.1,0-0.1-0.1-0.2c0-0.1,0-0.1,0-0.2c0.4,0,0.9,0.1,1.3,0V169
			c-0.1,0-0.2-0.1-0.3-0.1h-0.1v0c-0.1,0-0.1,0-0.2-0.1v0c0,0-0.1,0-0.1,0c0,0,0,0,0-0.1c0,0-0.1,0-0.1,0c0,0,0,0,0-0.1
			c-0.1-0.1-0.1-0.1-0.2-0.1v-0.1c0,0-0.1,0-0.1,0c0,0-0.1-0.1-0.1-0.1h-0.1c0,0,0,0,0-0.1c0,0-0.1-0.1-0.1-0.1
			c-0.2-0.2-0.3-0.4-0.5-0.7c0-0.1,0-0.1-0.1-0.2c0,0,0,0-0.1,0V167h0v-0.1h0c0-0.1,0-0.1-0.1-0.2h0v-0.1h0v-0.1h0v-0.1h0v-0.1h0
			c0-0.1,0-0.3-0.1-0.4c0-0.2,0-0.3,0-0.4c0.2,0,0.3,0,0.4,0.1v0h0.1v0h0.1v0c0.3,0.1,0.6,0.1,0.9,0.2v0h0c0-0.1,0-0.1-0.1-0.1v0
			h-0.1v0c0,0-0.1,0-0.1,0c-0.1-0.2-0.1-0.1-0.2-0.2c0,0,0-0.1,0-0.1c0,0-0.1,0-0.1,0v-0.1c0,0-0.1-0.1-0.1-0.1V165c0,0,0,0-0.1,0
			v-0.1c0,0-0.1,0-0.1-0.1v-0.1c0,0,0,0-0.1,0v-0.1l-0.1-0.1v-0.1h0v-0.1c0,0,0,0-0.1,0v-0.1h0v-0.1h0v-0.1c0,0,0,0-0.1,0
			c0-0.1,0-0.2,0-0.2h0v-0.1h0v-0.1h0v-0.2c-0.1-0.2-0.1-0.5-0.1-0.7v-0.5h0v-0.2h0v-0.2h0v-0.1h0v-0.1h0v-0.1h0
			c0-0.1,0-0.1,0.1-0.2h0v-0.1h0v-0.1h0v-0.1h0c0,0,0-0.1,0.1-0.1c0.2,0,0.2,0.1,0.3,0.2v0.1h0.1c0,0,0,0.1,0,0.1c0,0,0.1,0,0.1,0.1
			c0.1,0.1,0.1,0.1,0.2,0.2c0.2,0.2,0.3,0.3,0.6,0.5c0,0,0,0.1,0.1,0.1c0.1,0.1,0.2,0.2,0.4,0.3v0.1c0.1,0,0.1,0.1,0.2,0.1v0h0.1
			c0,0,0,0.1,0.1,0.1h0.1c0,0,0,0.1,0.1,0.1H33c0,0,0,0.1,0.1,0.1h0.1c0,0,0,0.1,0.1,0.1c0,0,0.1,0,0.1,0v0h0.1c0,0,0,0.1,0.1,0.1
			h0.1v0h0.1c0,0,0,0,0,0.1h0.1l0.1,0.1h0.1v0h0.1v0H34c0,0,0,0,0,0.1h0.1c0,0,0,0,0,0.1h0.1v0h0.1v0h0.1v0h0.1v0h0.1c0,0,0,0,0,0.1
			h0.1v0c0.1,0,0.1,0,0.2,0.1v0c0.1,0,0.1,0,0.2,0v0c0,0,0.1,0,0.1,0v0h0.1v0h0.1v0h0.1v0h0.1v0c0.1,0,0.2,0,0.3,0v0h0.1v0h0.1v0
			c0.2,0,0.3,0,0.5,0.1v0h0.1v0H37v0h0.2v0h0.2c0.2,0.1,0.5,0.1,0.8,0.1c0-0.1,0-0.2-0.1-0.3c0-0.2,0-0.9,0-1v-0.2h0v-0.1h0
			c0-0.1,0-0.3,0.1-0.4h0c0,0,0-0.1,0-0.1h0v-0.1h0v-0.1c0,0,0,0,0.1,0v-0.1h0c0,0,0-0.1,0-0.1c0,0,0,0,0.1,0c0-0.1,0-0.1,0.1-0.2h0
			c0.1-0.1,0.1-0.1,0.1-0.2H39v0c0,0,0,0,0,0v0c0,0,0.1-0.1,0.1-0.1v-0.1c0.1,0,0.1-0.1,0.2-0.2c0.2,0,0.1-0.1,0.3-0.2V161
			c0.2,0,0.3-0.2,0.4-0.3h0.1l0.1-0.1h0.1v0h0.1c0,0,0,0,0-0.1h0.1c0,0,0,0,0-0.1h0.1v0h0.1v0h0.1v0h0.1v0H41v0h0.1v0h0.2
			c0.3-0.1,0.9-0.1,1.2,0h0.1v0h0.1v0h0.1v0c0.1,0,0.2,0,0.2,0v0c0,0,0.1,0,0.1,0v0c0.1,0,0.2,0.1,0.3,0.1c0,0,0,0,0,0.1h0.1v0
			c0,0,0.1,0.1,0.1,0.1h0.1c0,0,0,0,0,0.1c0.2,0.1,0.5,0.3,0.6,0.5c0.2,0,0.2-0.1,0.4-0.1c0.1,0,0.2,0,0.3,0v0h0.1v0h0.1v0h0.1v0
			c0.1,0,0.1,0,0.2,0v0h0.1v0h0.1v0H46v0c0,0,0.1,0,0.1,0v0c0.1,0,0.1,0,0.2,0c0,0,0,0,0-0.1h0.1v0c0.1-0.1,0.2-0.1,0.3-0.2
			c0.1,0,0.1,0,0.1,0c0,0.2,0,0.2-0.1,0.3h0c0,0.1,0,0.1,0,0.2c0,0,0,0-0.1,0c0,0.1,0,0.1-0.1,0.2c0,0,0,0-0.1,0v0.1c0,0,0,0-0.1,0
			v0.1c0,0-0.1,0-0.1,0.1v0.1c0,0,0,0-0.1,0v0c0,0,0,0-0.1,0v0.1h0c0,0.1-0.1,0.1-0.1,0.2c-0.1,0-0.1,0-0.1,0.1
			c-0.1,0-0.1,0.1-0.2,0.1v0c-0.1,0.1-0.2,0.1-0.2,0.2h0.2v0h0.1v0c0.1,0,0.2,0,0.3,0v0h0.1v0c0.1,0,0.2,0,0.3,0v0
			c0.1,0,0.1,0,0.2,0v0h0.1v0H47v0H47v0c0.1,0,0.1,0,0.1-0.1C47.3,162,47.3,162,47.3,162"/>
		<path id="XMLID_201_" class="st6" d="M201.2,311.6v-11.9h3.2c3.8,0,5.7,2,5.7,5.9c0,2-0.5,3.5-1.4,4.5c-1,1-2.4,1.5-4.3,1.5H201.2
			z M200,312.7h4.5c2.2,0,3.9-0.6,5.1-1.8c1.2-1.2,1.8-3,1.8-5.2c0-2.2-0.6-4-1.8-5.2c-1.2-1.2-2.9-1.8-5.2-1.8H200V312.7z
			 M196.3,312.7v-1h-7.4v-5.5h7V305h-7v-5.3h7.4v-1h-8.6v14H196.3z M184,312.7v-1h-7.4v-5.5h7V305h-7v-5.3h7.4v-1h-8.6v14H184z
			 M164.9,312.7v-6.6h6.8V305h-6.8v-5.3h7.2v-1h-8.4v14H164.9z"/>
		<path id="XMLID_189_" class="st7" d="M150.9,302.7c-0.7,0-1.3,0.1-1.8,0.4c-0.5,0.3-1,0.7-1.4,1.3l-0.2-1.4h-3.2
			c0.1,0.8,0.2,1.7,0.2,2.8v6.9h3.4v-5.4c0-0.6,0.2-1,0.5-1.4c0.3-0.3,0.7-0.5,1.3-0.5c0.4,0,0.7,0.1,0.9,0.4
			c0.2,0.3,0.3,0.7,0.3,1.3v5.6h3.4v-5.8c0-1.4-0.3-2.4-0.8-3.1C152.9,303.1,152,302.7,150.9,302.7 M141.4,299.1h-3.6v13.5h3.6
			V299.1z M129.6,310.2c-0.6,0-1.1-0.2-1.4-0.7c-0.3-0.4-0.5-1.1-0.5-1.9c0-0.8,0.2-1.4,0.5-1.8c0.3-0.4,0.8-0.6,1.4-0.6
			c0.6,0,1.1,0.2,1.4,0.6c0.3,0.4,0.5,1,0.5,1.8c0,0.8-0.2,1.4-0.5,1.8C130.7,310,130.2,310.2,129.6,310.2 M131.4,298.7v5.5
			c-0.3-0.4-0.7-0.8-1.2-1c-0.5-0.3-1.1-0.4-1.7-0.4c-0.8,0-1.6,0.2-2.2,0.6c-0.6,0.4-1.1,1-1.5,1.8c-0.4,0.8-0.5,1.6-0.5,2.6
			c0,1,0.2,1.9,0.5,2.7c0.4,0.8,0.9,1.4,1.5,1.8c0.6,0.4,1.4,0.6,2.2,0.6c0.6,0,1.2-0.1,1.7-0.4c0.5-0.3,0.9-0.6,1.2-1.1v1.3h3.4
			v-14H131.4z M117.9,305.1c0.9,0,1.4,0.5,1.5,1.5h-3.1C116.5,305.6,117.1,305.1,117.9,305.1 M122.4,307.7c0-1-0.2-1.9-0.6-2.6
			c-0.4-0.8-0.9-1.3-1.6-1.7c-0.7-0.4-1.5-0.6-2.4-0.6c-0.9,0-1.8,0.2-2.5,0.6c-0.7,0.4-1.3,1-1.7,1.8c-0.4,0.8-0.6,1.6-0.6,2.6
			c0,1,0.2,1.9,0.6,2.7c0.4,0.8,1.1,1.3,1.9,1.7c0.8,0.4,1.8,0.6,2.9,0.6c0.7,0,1.4-0.1,2.1-0.3c0.7-0.2,1.3-0.5,1.7-0.8l-0.9-2.3
			c-0.4,0.3-0.8,0.5-1.3,0.7c-0.5,0.2-1,0.2-1.4,0.2c-0.7,0-1.2-0.2-1.6-0.5c-0.4-0.3-0.6-0.9-0.6-1.6h6.1V307.7z M108.3,307.6
			l3.8-4.6h-4.1l-3.2,4v-8.4h-3.4v14h3.4v-4.2l3.3,4.2h4.2L108.3,307.6z M95.2,302.7c-0.7,0-1.3,0.1-1.8,0.4c-0.5,0.3-1,0.7-1.4,1.3
			l-0.2-1.4h-3.2c0.1,0.8,0.2,1.7,0.2,2.8v6.9h3.4v-5.4c0-0.6,0.2-1,0.5-1.4c0.3-0.3,0.7-0.5,1.3-0.5c0.4,0,0.7,0.1,0.9,0.4
			c0.2,0.3,0.3,0.7,0.3,1.3v5.6h3.4v-5.8c0-1.4-0.3-2.4-0.8-3.1C97.2,303.1,96.4,302.7,95.2,302.7 M82.4,301.4H86v-3.1h-3.6V301.4z
			 M86,303h-3.4v9.7H86V303z M80.2,312.7v-2.9h-5.7v-10.6H71v13.5H80.2z"/>
		<path id="XMLID_183_" class="st6" d="M201.2,171.9V160h3.2c3.8,0,5.7,2,5.7,5.9c0,2-0.5,3.5-1.4,4.5c-1,1-2.4,1.5-4.3,1.5H201.2z
			 M200,173h4.5c2.2,0,3.9-0.6,5.1-1.8c1.2-1.2,1.8-3,1.8-5.2c0-2.2-0.6-4-1.8-5.2c-1.2-1.2-2.9-1.8-5.2-1.8H200V173z M196.3,173v-1
			h-7.4v-5.5h7v-1.1h-7V160h7.4v-1h-8.6v14H196.3z M184,173v-1h-7.4v-5.5h7v-1.1h-7V160h7.4v-1h-8.6v14H184z M164.9,173v-6.6h6.8
			v-1.1h-6.8V160h7.2v-1h-8.4v14H164.9z"/>
		<path id="XMLID_173_" class="st7" d="M153.7,163.1c-0.6,0-1.2,0.2-1.7,0.5c-0.5,0.3-0.9,0.8-1.1,1.4l-0.2-1.6h-3.2
			c0.1,0.8,0.2,1.7,0.2,2.8v6.9h3.4v-4.8c0-1.4,0.7-2.1,2.2-2.1c0.5,0,1,0.1,1.6,0.4v-3.1C154.5,163.1,154.1,163.1,153.7,163.1
			 M140,165.4c0.9,0,1.4,0.5,1.5,1.5h-3.1C138.6,165.9,139.2,165.4,140,165.4 M144.5,168c0-1-0.2-1.9-0.6-2.6
			c-0.4-0.8-0.9-1.3-1.6-1.7c-0.7-0.4-1.5-0.6-2.4-0.6c-0.9,0-1.8,0.2-2.5,0.6c-0.7,0.4-1.3,1-1.7,1.8c-0.4,0.8-0.6,1.6-0.6,2.6
			c0,1,0.2,1.9,0.6,2.7c0.4,0.8,1.1,1.3,1.9,1.7c0.8,0.4,1.8,0.6,2.9,0.6c0.7,0,1.4-0.1,2.1-0.3c0.7-0.2,1.3-0.5,1.7-0.8l-0.9-2.3
			c-0.4,0.3-0.8,0.5-1.3,0.7c-0.5,0.2-1,0.2-1.4,0.2c-0.7,0-1.2-0.2-1.6-0.5c-0.4-0.3-0.6-0.9-0.6-1.6h6.1V168z M131.8,170.3
			c-0.4,0-0.7-0.1-1-0.4c-0.3-0.2-0.4-0.6-0.4-1v-3.1h2.3v-2.5h-2.3V160l-3.4,1.1v2.2h-1.8v2.5h1.8v3.1c0,1.3,0.3,2.3,1,3.1
			c0.7,0.7,1.7,1.1,3,1.1c0.7,0,1.3-0.1,1.8-0.3v-2.6C132.4,170.3,132,170.3,131.8,170.3 M122.8,170.3c-0.4,0-0.7-0.1-1-0.4
			c-0.3-0.2-0.4-0.6-0.4-1v-3.1h2.3v-2.5h-2.3V160l-3.4,1.1v2.2h-1.8v2.5h1.8v3.1c0,1.3,0.3,2.3,1,3.1c0.7,0.7,1.7,1.1,3,1.1
			c0.7,0,1.3-0.1,1.8-0.3v-2.6C123.3,170.3,123,170.3,122.8,170.3 M110,161.7h3.6v-3.1H110V161.7z M113.5,163.3h-3.4v9.7h3.4V163.3z
			 M102.3,169l-2.1-5.7H98l-2.1,5.6l-2.1-5.6h-3.5l4,9.7h2.8l1.8-4.8l1.9,4.8h2.8l4-9.7h-3.3L102.3,169z M87.5,170.3
			c-0.4,0-0.7-0.1-1-0.4c-0.3-0.2-0.4-0.6-0.4-1v-3.1h2.3v-2.5h-2.3V160l-3.4,1.1v2.2h-1.8v2.5h1.8v3.1c0,1.3,0.3,2.3,1,3.1
			c0.7,0.7,1.7,1.1,3,1.1c0.7,0,1.3-0.1,1.8-0.3v-2.6C88.1,170.3,87.8,170.3,87.5,170.3"/>
		<path id="XMLID_167_" class="st6" d="M201.2,34.9V23h3.2c3.8,0,5.7,2,5.7,5.9c0,2-0.5,3.5-1.4,4.5c-1,1-2.4,1.5-4.3,1.5H201.2z
			 M200,35.9h4.5c2.2,0,3.9-0.6,5.1-1.8c1.2-1.2,1.8-3,1.8-5.2c0-2.2-0.6-4-1.8-5.2c-1.2-1.2-2.9-1.8-5.2-1.8H200V35.9z M196.3,35.9
			v-1h-7.4v-5.5h7v-1.1h-7V23h7.4v-1h-8.6v14H196.3z M184,35.9v-1h-7.4v-5.5h7v-1.1h-7V23h7.4v-1h-8.6v14H184z M164.9,35.9v-6.6h6.8
			v-1.1h-6.8V23h7.2v-1h-8.4v14H164.9z"/>
		<path id="XMLID_153_" class="st7" d="M152.1,30.9l3.8-4.6h-4.1l-3.2,4V22h-3.4v14h3.4v-4.2l3.3,4.2h4.2L152.1,30.9z M137.5,33.5
			c-0.6,0-1.1-0.2-1.4-0.6c-0.3-0.4-0.5-1-0.5-1.9c0-0.8,0.2-1.5,0.5-1.9c0.3-0.4,0.8-0.6,1.4-0.6c0.6,0,1.1,0.2,1.4,0.6
			c0.3,0.4,0.5,1,0.5,1.9C139.4,32.7,138.7,33.5,137.5,33.5 M137.5,36.1c1.1,0,2-0.2,2.8-0.6c0.8-0.4,1.4-1,1.8-1.7
			c0.4-0.8,0.6-1.6,0.6-2.7s-0.2-1.9-0.6-2.7c-0.4-0.8-1-1.3-1.8-1.7c-0.8-0.4-1.7-0.6-2.8-0.6c-1.1,0-2,0.2-2.8,0.6
			c-0.8,0.4-1.4,1-1.8,1.7c-0.4,0.8-0.6,1.7-0.6,2.7s0.2,1.9,0.6,2.7c0.4,0.8,1,1.3,1.8,1.7C135.5,35.9,136.4,36.1,137.5,36.1
			 M125,33.5c-0.6,0-1.1-0.2-1.4-0.6c-0.3-0.4-0.5-1-0.5-1.9c0-0.8,0.2-1.5,0.5-1.9c0.3-0.4,0.8-0.6,1.4-0.6c0.6,0,1.1,0.2,1.4,0.6
			c0.3,0.4,0.5,1,0.5,1.9C126.9,32.7,126.2,33.5,125,33.5 M125,36.1c1.1,0,2-0.2,2.8-0.6c0.8-0.4,1.4-1,1.8-1.7
			c0.4-0.8,0.6-1.6,0.6-2.7s-0.2-1.9-0.6-2.7c-0.4-0.8-1-1.3-1.8-1.7c-0.8-0.4-1.7-0.6-2.8-0.6c-1.1,0-2,0.2-2.8,0.6
			c-0.8,0.4-1.4,1-1.8,1.7c-0.4,0.8-0.6,1.7-0.6,2.7s0.2,1.9,0.6,2.7c0.4,0.8,1,1.3,1.8,1.7C123,35.9,123.9,36.1,125,36.1
			 M112.4,33.5c-0.6,0-1.1-0.2-1.4-0.6c-0.3-0.4-0.5-1-0.5-1.8c0-0.8,0.2-1.4,0.5-1.8c0.3-0.4,0.8-0.6,1.4-0.6
			c0.6,0,1.1,0.2,1.4,0.6c0.3,0.4,0.5,1,0.5,1.8c0,0.8-0.2,1.4-0.5,1.9C113.5,33.3,113,33.5,112.4,33.5 M113.5,26
			c-0.6,0-1.2,0.1-1.7,0.4c-0.5,0.3-0.9,0.6-1.2,1V22h-3.4v14h3.4v-1.3c0.3,0.5,0.7,0.8,1.2,1.1c0.5,0.3,1.1,0.4,1.8,0.4
			c0.8,0,1.6-0.2,2.2-0.6c0.6-0.4,1.2-1,1.5-1.8c0.4-0.8,0.6-1.6,0.6-2.7c0-1-0.2-1.9-0.5-2.6c-0.4-0.8-0.9-1.3-1.5-1.8
			C115.1,26.2,114.3,26,113.5,26 M100.3,28.4c0.9,0,1.4,0.5,1.5,1.5h-3.1C99,28.9,99.5,28.4,100.3,28.4 M104.8,31
			c0-1-0.2-1.9-0.6-2.6c-0.4-0.8-0.9-1.3-1.6-1.7c-0.7-0.4-1.5-0.6-2.4-0.6c-0.9,0-1.8,0.2-2.5,0.6c-0.7,0.4-1.3,1-1.7,1.8
			c-0.4,0.8-0.6,1.6-0.6,2.6c0,1,0.2,1.9,0.6,2.7c0.4,0.8,1.1,1.3,1.9,1.7c0.8,0.4,1.8,0.6,2.9,0.6c0.7,0,1.4-0.1,2.1-0.3
			c0.7-0.2,1.3-0.5,1.7-0.8l-0.9-2.3c-0.4,0.3-0.8,0.5-1.3,0.7c-0.5,0.2-1,0.2-1.4,0.2c-0.7,0-1.2-0.2-1.6-0.5
			c-0.4-0.3-0.6-0.9-0.6-1.6h6.1V31z M90.1,36.1c0.8,0,1.5-0.1,2.2-0.3c0.7-0.2,1.2-0.5,1.7-0.9l-0.9-2.3c-0.3,0.3-0.7,0.5-1.2,0.7
			c-0.4,0.2-0.9,0.2-1.3,0.2c-0.7,0-1.3-0.2-1.7-0.6c-0.4-0.4-0.6-1-0.6-1.8c0-0.8,0.2-1.4,0.6-1.8c0.4-0.4,0.9-0.6,1.6-0.6
			c0.4,0,0.9,0.1,1.3,0.2c0.5,0.2,0.9,0.4,1.2,0.7l0.9-2.4c-0.4-0.4-0.9-0.6-1.6-0.8C91.7,26.1,91,26,90.2,26c-1.1,0-2,0.2-2.8,0.6
			c-0.8,0.4-1.4,1-1.9,1.8c-0.4,0.8-0.7,1.7-0.7,2.7c0,1.5,0.5,2.7,1.4,3.6C87.2,35.7,88.5,36.1,90.1,36.1 M77.2,33.5
			c-0.6,0-1.1-0.2-1.4-0.6c-0.3-0.4-0.5-1-0.5-1.8c0-0.8,0.2-1.4,0.5-1.9c0.3-0.4,0.8-0.7,1.4-0.7c0.6,0,1.1,0.2,1.4,0.6
			c0.3,0.4,0.5,1,0.5,1.8c0,0.8-0.2,1.4-0.5,1.8S77.8,33.5,77.2,33.5 M79.1,26.3v1.2c-0.3-0.5-0.7-0.8-1.2-1.1
			c-0.5-0.3-1.1-0.4-1.7-0.4c-0.8,0-1.5,0.2-2.2,0.6c-0.6,0.4-1.2,1-1.5,1.8c-0.4,0.8-0.6,1.7-0.6,2.7c0,1,0.2,1.9,0.5,2.6
			c0.4,0.8,0.9,1.3,1.5,1.7c0.6,0.4,1.4,0.6,2.2,0.6c0.6,0,1.2-0.1,1.7-0.4c0.5-0.3,0.9-0.6,1.2-1.1v1.3h3.4v-9.7H79.1z M69.6,24.6
			c0.2,0,0.5,0,0.9,0.1v-2.6c-0.5-0.2-1.1-0.3-1.8-0.3c-1.3,0-2.3,0.4-3,1.1c-0.7,0.7-1,1.8-1,3.1v0.3H63v2.5h1.8v7.1h3.4v-7.1h1.9
			v-2.5h-1.9v-0.2c0-0.5,0.1-0.8,0.4-1.1C68.9,24.8,69.2,24.6,69.6,24.6"/>
		<path id="XMLID_150_" class="st7" d="M48.4,29.2c0,5.8-4.7,10.5-10.5,10.5S27.4,35,27.4,29.2c0-5.8,4.7-10.5,10.5-10.5
			S48.4,23.4,48.4,29.2 M53.3,29.2c0-8.5-6.9-15.4-15.4-15.4H22.5v15.4l0,0c0,0,0,0,0,0c0,8.5,6.9,15.4,15.4,15.4
			S53.3,37.7,53.3,29.2"/>
	</g>
	<rect id="XMLID_52_" x="22.2" y="196.4" class="st1" width="190.6" height="79.5"/>
	<g id="XMLID_144_">
		<defs>
			<rect id="XMLID_50_" y="0" width="235" height="437.2"/>
		</defs>
		<clipPath id="XMLID_34_">
			<use xlink:href="#XMLID_50_"  style="overflow:visible;"/>
		</clipPath>
		<path id="XMLID_51_" class="st8" d="M176.9,222.7"/>
	</g>
	<path id="XMLID_49_" class="st5" d="M117.5,222.7"/>
	<g id="XMLID_140_">
		<defs>
			<rect id="XMLID_29_" y="0" width="235" height="437.2"/>
		</defs>
		<clipPath id="XMLID_35_">
			<use xlink:href="#XMLID_29_"  style="overflow:visible;"/>
		</clipPath>
		<path id="XMLID_48_" class="st9" d="M165.3,276.7"/>
	</g>
	<path id="XMLID_28_" class="st5" d="M117.5,276.7"/>
	<line id="XMLID_27_" class="st2" x1="15.7" y1="275.9" x2="219.3" y2="275.9"/>
	<line id="XMLID_26_" class="st2" x1="15.7" y1="195.9" x2="219.3" y2="195.9"/>
	<rect id="XMLID_25_" x="22.2" y="57.8" class="st1" width="190.6" height="79.5"/>
	<g id="XMLID_133_">
		<defs>
			<rect id="XMLID_23_" y="0" width="235" height="437.2"/>
		</defs>
		<clipPath id="XMLID_36_">
			<use xlink:href="#XMLID_23_"  style="overflow:visible;"/>
		</clipPath>
		<path id="XMLID_24_" class="st10" d="M176.9,84.1"/>
	</g>
	<path id="XMLID_22_" class="st5" d="M117.5,84.1"/>
	<g id="XMLID_129_">
		<defs>
			<rect id="XMLID_20_" y="0" width="235" height="437.2"/>
		</defs>
		<clipPath id="XMLID_37_">
			<use xlink:href="#XMLID_20_"  style="overflow:visible;"/>
		</clipPath>
		<path id="XMLID_21_" class="st11" d="M165.3,138.1"/>
	</g>
	<path id="XMLID_19_" class="st5" d="M117.5,138.1"/>
	<line id="XMLID_18_" class="st2" x1="15.7" y1="137.3" x2="219.3" y2="137.3"/>
	<line id="XMLID_17_" class="st2" x1="15.7" y1="57.3" x2="219.3" y2="57.3"/>
	<g id="XMLID_122_">
		<defs>
			<rect id="XMLID_14_" y="0" width="235" height="437.2"/>
		</defs>
		<clipPath id="XMLID_38_">
			<use xlink:href="#XMLID_14_"  style="overflow:visible;"/>
		</clipPath>
		<path id="XMLID_16_" class="st12" d="M53.2,29.1c0-8.5-6.9-15.4-15.4-15.4H22.5v15.4l0,0c0,0,0,0,0,0c0,8.5,6.9,15.4,15.4,15.4
			S53.2,37.6,53.2,29.1"/>
		<path id="XMLID_15_" class="st13" d="M37.1,20.7L37.1,20.7L37.1,20.7l0.2,0c0,0,0,0,0-0.1c0.1,0,0.2,0,0.2,0v0h0.1v0h0.1v0h0.1v0
			c0.2,0,0.3,0,0.5,0c0.5-0.2,1.5-0.1,2.1-0.1c0.5,0,1.1-0.1,1.5,0.1c0,0.1,0,0,0,0.1v2.1v0.9c0,0-0.1,0.1-0.1,0.1h-1.6
			c-0.5,0-0.8,0-1,0.2h0v0.1c0,0,0,0-0.1,0v0.1h0v0.2h0c0,0.1,0,0.1,0,0.1V25v0.9c0,0.2,0,0.2,0,0.4h2.8c0,0,0,0,0.1,0.1
			c0,0.2,0,0.2,0,0.4v0.3h0v0.5h0v0.3h0v0.4h0v0.3h0v0.4h0v0.4h0v0.2h0c0,0,0,0.1,0,0.1c-0.1,0-0.2,0.1-0.3,0h-1.5
			c-0.2,0-0.6,0-0.7,0c0,0.1,0,0.2,0,0.4h0v0.4h0c0,0.1,0,0.2,0,0.4v1.1v4.5V38c0,0.3,0,0.7-0.1,0.9c-0.3,0.1-0.7,0-1.1,0h-1.8
			c-0.2,0-0.8,0.1-1-0.1c0,0-0.1-0.2-0.1-0.3c0,0,0,0,0,0v-0.3h0v0h0v-0.5h0c0-0.1,0-0.2,0-0.4v-1c0-1,0-1.9,0-2.9
			c0-0.2,0-0.4,0-0.6h0v-0.6c0-0.2-0.1-0.4,0-0.5v-1.4c0-0.3,0-0.5-0.1-0.7c-0.6,0-1.2,0-1.7,0c0,0,0-0.1-0.1-0.1v-2.2v-1
			c0,0,0.1-0.1,0.1-0.1c0.6,0,1.3,0,1.7,0c0.1-0.5,0-1.2,0-1.8v-0.4c0,0,0,0,0-0.1h0v-0.4h0v-0.2h0v-0.2h0v-0.1h0V23h0
			c0-0.1,0-0.2,0.1-0.4h0c0,0,0-0.1,0-0.1h0v-0.1h0c0,0,0-0.1,0-0.1h0c0,0,0-0.1,0-0.1c0,0,0,0,0.1,0c0,0,0-0.1,0-0.1c0,0,0,0,0.1,0
			v-0.1c0,0,0.1,0,0.1-0.1v-0.1c0,0,0.1-0.1,0.1-0.1c0,0,0-0.1,0-0.1h0.1c0-0.1,0-0.1,0.1-0.1v0h0.1c0,0,0-0.1,0.1-0.1h0.1
			c0,0,0-0.1,0.1-0.1h0.1c0,0,0,0,0-0.1h0.1c0,0,0,0,0-0.1c0.1,0,0.1,0,0.2-0.1C37,20.8,37,20.8,37.1,20.7"/>
	</g>
</g>
</svg>
