<?xml version="1.0" encoding="utf-8"?>
<!-- Generator: Adobe Illustrator 19.0.0, SVG Export Plug-In . SVG Version: 6.00 Build 0)  -->
<svg version="1.1" id="Layer_1" xmlns="http://www.w3.org/2000/svg" xmlns:xlink="http://www.w3.org/1999/xlink" x="0px" y="0px"
	 viewBox="0 0 235 206.5" style="enable-background:new 0 0 235 206.5;" xml:space="preserve">
<style type="text/css">
	.st0{clip-path:url(#SVGID_2_);fill:#DCDDDE;}
	.st1{fill:#1F293D;}
	.st2{clip-path:url(#SVGID_4_);fill:none;stroke:#1F293D;stroke-width:2.116;stroke-miterlimit:10;}
	.st3{clip-path:url(#SVGID_4_);fill:#F47821;}
	.st4{clip-path:url(#SVGID_4_);fill:#7BBBE6;}
</style>
<g>
	<defs>
		<rect id="SVGID_1_" y="0" width="235" height="206.5"/>
	</defs>
	<clipPath id="SVGID_2_">
		<use xlink:href="#SVGID_1_"  style="overflow:visible;"/>
	</clipPath>
	<path class="st0" d="M0.6,188.9c1.5,6.7,6.3,17.7,22,17.7h189.7c0,0,19.2,0,22.2-17.7H0.6z M235,129.9V22.7c0,0,0-22.7-22.7-22.7
		H22.7C22.7,0,0,0,0,22.7v107.2H235"/>
</g>
<polygon class="st1" points="18.5,147.7 12.3,155.1 6.2,155.1 6.2,165.2 12.4,165.2 12.4,165.2 18.7,172.6 "/>
<g>
	<defs>
		<rect id="SVGID_3_" y="0" width="235" height="206.5"/>
	</defs>
	<clipPath id="SVGID_4_">
		<use xlink:href="#SVGID_3_"  style="overflow:visible;"/>
	</clipPath>
	<path class="st2" d="M23.5,163.8c0.9-0.9,1.5-2.3,1.5-3.7c0-1.5-0.6-2.9-1.7-3.9"/>
	<path class="st2" d="M26.4,168.3c2.3-2,3.7-4.9,3.7-8.1c0-3.4-1.6-6.5-4-8.4"/>
	<path class="st2" d="M29,172.4c3.5-3,5.7-7.3,5.7-12.3c0-5-2.3-9.4-5.8-12.4"/>
	<path class="st3" d="M35.7,13.3c0.1,0.2,0.1,0.5,0.2,0.7h0.2c0.1,0.6,0.1,1.1,0.2,1.7c0.5,1.4,0.7,2.6,0.7,4.5
		c-0.2,0.1-0.4,0.2-0.6,0.4v0.2h-0.4V21c-0.5,0.2-1.4,0-1.7-0.2v-0.2c-0.5-0.4-0.5-0.5-0.8-1.1v-0.8c-0.3-1.1-0.6-2.5-0.9-3.6
		c-0.2-0.8,0.2-1.3,0.4-1.9c0.5-0.1,1.1-0.6,1.9-0.4v0.2C35.2,13.2,35.5,13.2,35.7,13.3"/>
	<path class="st3" d="M54.6,16.7c0.7,0,1,0.1,1.5,0.2c0.2,0.3,0.3,0.3,0.4,0.8h0.2v1.5c-0.7,0.6-1,1.6-1.5,2.4H55
		c-0.1,0.2-0.1,0.4-0.2,0.6c-0.1,0.1-0.2,0.1-0.4,0.2v0.4c-0.1,0.1-0.2,0.1-0.4,0.2v0.4c-0.4,0.3-0.7,0.6-1.1,0.9h-1.1
		c-0.2-0.3-0.5-0.4-0.7-0.7h-0.2c-0.1-0.4-0.1-0.9-0.2-1.3h0.2v-0.6c0.1-0.1,0.2-0.1,0.4-0.2V21c0.1-0.1,0.2-0.1,0.4-0.2v-0.4
		c0.1-0.1,0.2-0.1,0.4-0.2v-0.4c0.1-0.1,0.2-0.1,0.4-0.2c0.1-0.2,0.1-0.5,0.2-0.7c0.1-0.1,0.2-0.1,0.4-0.2v-0.4h0.2
		c0.1-0.2,0.1-0.4,0.2-0.6c0.1-0.1,0.2-0.1,0.4-0.2v-0.4h0.2c0.1-0.1,0.1-0.2,0.2-0.4h0.6V16.7z"/>
	<path class="st3" d="M38.1,23.4c4.1-0.1,7,0.3,9.6,1.7h0.4v0.2h0.4v0.2h0.4v0.2c0.6,0.3,1,0.4,1.3,0.9c0.6,0.6,0.3,1.4,0,2.1
		c-0.6,0.3-0.8,0.5-1.7,0.6V29c-0.3-0.1-0.6-0.1-0.9-0.2c-0.1-0.1-0.1-0.2-0.2-0.4c-0.6-0.2-1.1-0.4-1.7-0.6v-0.2h-0.4v-0.2
		c-0.4-0.1-0.9-0.1-1.3-0.2v-0.2h-0.6V27h-1.1v-0.2c-1.1-0.3-5.2,0.1-6,0.4v0.2h-0.6v0.2c-0.4,0.1-0.8,0.1-1.1,0.2v0.2
		c-0.2,0.1-0.5,0.1-0.7,0.2v0.2c-0.4,0.1-0.8,0.2-1.1,0.4c-0.1,0.1-0.1,0.2-0.2,0.4h-0.4v0.2h-0.4c-0.1,0.2-0.2,0.4-0.4,0.6H31
		c-0.2,0.3-0.5,0.6-0.8,0.9c-0.6,0.5-1.1,1-1.7,1.5v0.4c-0.2,0.1-0.4,0.2-0.6,0.4c-0.6,1.2-1.2,2.5-1.9,3.7
		c-0.1,0.7-0.2,1.5-0.4,2.2h-0.2v1.5c-0.1,0.3-0.4,1.3-0.2,1.9h0.2c0.1,1.1,0.1,2.1,0.2,3.2c-0.3,0.7-1,1-1.9,1.1v-0.2h-0.6
		c-0.2-0.2-0.4-0.5-0.6-0.7c-0.5-0.5-0.2-0.8-0.4-1.5c-0.6-1.9-0.4-4.8,0.2-6.6c0.2-0.9,0.4-1.7,0.6-2.6c1.9-4.3,4.8-7.6,8.8-9.7
		c0.4-0.1,0.7-0.2,1.1-0.4v-0.2h0.4v-0.2H34v-0.2h0.6v-0.2h0.7V24h0.6v-0.2C36.6,23.6,37.7,23.8,38.1,23.4"/>
	<path class="st3" d="M16.2,24.9h1.7c0.3,0.5,0.7,0.4,1.1,0.7c0.1,0.1,0.1,0.2,0.2,0.4c0.2,0.1,0.4,0.1,0.6,0.2v0.2
		c0.2,0.1,0.5,0.1,0.7,0.2v0.2c0.2,0.1,0.4,0.1,0.6,0.2c0.1,0.1,0.1,0.2,0.2,0.4c1,0.6,1.5,0.5,1.7,2.1h-0.2
		c-0.1,0.3-0.1,0.6-0.2,0.9c-0.4,0.2-1.1,0.8-1.9,0.6v-0.2c-0.2-0.1-0.5-0.1-0.7-0.2c-0.1-0.1-0.1-0.2-0.2-0.4h-0.4
		c-0.1-0.1-0.1-0.2-0.2-0.4c-0.2-0.1-0.4-0.1-0.6-0.2v-0.2c-0.2-0.1-0.5-0.1-0.7-0.2V29c-0.2-0.1-0.4-0.1-0.6-0.2
		c-0.1-0.1-0.1-0.2-0.2-0.4h-0.4c-0.1-0.1-0.1-0.2-0.2-0.4h-0.4c-0.2-0.2-0.4-0.5-0.6-0.8h-0.2v-1.5C15.7,25.7,16.1,25.2,16.2,24.9"
		/>
	<path class="st4" d="M102.6,64.1c-0.1,0.1-0.2,0.1-0.4,0.2v0.4c-0.1,0.1-0.2,0.1-0.4,0.2v0.4c-0.3,0.2-0.6,0.5-0.9,0.7v0.4
		c-0.1,0.1-0.2,0.1-0.4,0.2c-0.2,0.3-0.5,0.6-0.7,0.9h-0.4c-0.2,0.3-0.5,0.6-0.7,0.9h-0.4c-0.1,0.1-0.1,0.2-0.2,0.4h-0.4
		c-0.1,0.1-0.1,0.2-0.2,0.4c-0.2,0.1-0.5,0.1-0.8,0.2v0.2c-0.4,0.1-0.7,0.2-1.1,0.4V70c-1.1,0.3-2.2,0.6-3.4,0.9H79.4H50.1H39.8
		c-2.7,0-5.1,0.1-6.9-0.7V70h-0.4v-0.2c-0.4-0.1-0.8-0.2-1.1-0.4c-0.1-0.1-0.1-0.2-0.2-0.4h-0.4c-0.1-0.2-0.2-0.4-0.4-0.6h-0.4
		c-0.5-0.6-1-1.1-1.5-1.7c-0.2-0.2-0.5-0.4-0.8-0.6v-0.4c-0.1-0.1-0.2-0.1-0.4-0.2c-0.1-0.2-0.1-0.5-0.2-0.7
		c-0.1-0.1-0.2-0.1-0.4-0.2v-0.4h-0.2c-0.1-0.2-0.1-0.5-0.2-0.8h-0.2c-0.1-0.6-0.2-1.2-0.4-1.9c-1.9-5.4,1.8-10.9,5.1-13.1h0.4
		c0.1-0.1,0.1-0.2,0.2-0.4H32v-0.2c0.4-0.1,0.7-0.2,1.1-0.4v-0.2c0.8-0.4,4.6-1.1,6-0.7V47h1.1v0.2H41v0.2c0.4,0.1,0.8,0.1,1.1,0.2
		v0.2c1,0,1.2-0.3,1.9-0.6c0.5-1.7,1-3.4,1.5-5.1h0.2c0.1-0.2,0.1-0.5,0.2-0.8H46c0.1-0.2,0.1-0.5,0.2-0.7c0.1-0.1,0.2-0.1,0.4-0.2
		c0.1-0.2,0.1-0.5,0.2-0.7c0.1-0.1,0.2-0.1,0.4-0.2v-0.4h0.2c0.1-0.2,0.1-0.4,0.2-0.6c0.1-0.1,0.2-0.1,0.4-0.2V38
		c0.3-0.2,0.6-0.5,0.9-0.8v-0.4c0.2-0.1,0.4-0.2,0.6-0.4c0.4-0.5,0.9-1,1.3-1.5h0.4c0.2-0.3,0.5-0.6,0.7-0.9h0.4
		c0.1-0.1,0.1-0.2,0.2-0.4h0.4c0.1-0.2,0.2-0.4,0.4-0.6c0.2-0.1,0.5-0.1,0.8-0.2c0.1-0.1,0.1-0.2,0.2-0.4c0.2-0.1,0.5-0.1,0.7-0.2
		v-0.2c0.4-0.1,0.8-0.2,1.1-0.4v-0.2c1.4-0.4,2.7-0.9,4.1-1.3c0.7-0.2,2,0,2.4-0.4c4.9,0,8.2,0.6,11.2,2.4c0.4,0.1,0.8,0.2,1.1,0.4
		c0.1,0.1,0.1,0.2,0.2,0.4c0.2,0.1,0.5,0.1,0.7,0.2c0.1,0.1,0.1,0.2,0.2,0.4h0.4c0.2,0.2,0.4,0.5,0.6,0.7h0.4
		c0.3,0.4,0.6,0.8,0.9,1.1h0.4v0.2c0.2,0.1,0.4,0.2,0.6,0.4v0.4c0.4,0.4,0.9,0.7,1.3,1.1V38c0.2,0.1,0.4,0.2,0.6,0.4v0.4
		c0.1,0.1,0.2,0.1,0.4,0.2v0.4c0.1,0.1,0.2,0.1,0.4,0.2c0.1,0.2,0.1,0.4,0.2,0.6h0.2v0.4h0.2v0.4h0.2v0.4l0.4,0.4V42h0.2
		c0.2,0.2,0.4,0.5,0.6,0.8c0.7-0.1,1.4-0.1,2.1-0.2v-0.2h0.7v-0.2c0.7-0.1,1.4-0.1,2.1-0.2v-0.2h2.8V42h1.3v0.2h0.8v0.2h0.7v0.2h0.6
		v0.2h0.6v0.2h0.4v0.2h0.6c0.1,0.1,0.1,0.2,0.2,0.4H97c0.1,0.1,0.1,0.2,0.2,0.4c0.2,0.1,0.5,0.1,0.7,0.2c0.1,0.1,0.1,0.2,0.2,0.4
		h0.4c0.1,0.2,0.2,0.4,0.4,0.6h0.4c0.2,0.3,0.5,0.6,0.7,0.9c0.4,0.4,0.9,0.8,1.3,1.1v0.4c0.2,0.1,0.4,0.2,0.6,0.4
		c0.1,0.2,0.1,0.4,0.2,0.6c0.1,0.1,0.2,0.1,0.4,0.2c0.1,0.2,0.1,0.5,0.2,0.7h0.2v0.4h0.2V50h0.2c0.1,0.4,0.2,0.8,0.4,1.1h0.2
		c0.1,0.4,0.1,0.8,0.2,1.1h0.2V53C105.3,56.6,104.2,61.5,102.6,64.1 M107.5,52.6v-0.7h-0.2v-0.6h-0.2v-0.8h-0.2v-0.4h-0.2v-0.6h-0.2
		v-0.4h-0.2v-0.6h-0.2v-0.4H106v-0.4c-0.1-0.1-0.2-0.1-0.4-0.2c-0.1-0.2-0.1-0.5-0.2-0.7c-0.1-0.1-0.2-0.1-0.4-0.2
		c-0.1-0.2-0.1-0.5-0.2-0.7c-0.2-0.1-0.4-0.2-0.6-0.4v-0.4c-0.3-0.2-0.6-0.5-0.9-0.7v-0.4c-0.1-0.1-0.2-0.1-0.4-0.2
		c-0.2-0.3-0.5-0.6-0.7-0.9h-0.4c-0.2-0.3-0.5-0.6-0.7-0.9h-0.4c-0.1-0.1-0.1-0.2-0.2-0.4h-0.4c-0.1-0.1-0.1-0.2-0.2-0.4h-0.4
		c-0.1-0.1-0.1-0.2-0.2-0.4c-0.2-0.1-0.4-0.1-0.6-0.2v-0.2c-0.2-0.1-0.5-0.1-0.7-0.2v-0.2c-0.2-0.1-0.5-0.1-0.8-0.2v-0.2h-0.6v-0.2
		h-0.4v-0.2c-0.9-0.2-1.7-0.4-2.6-0.6v-0.2c-0.9-0.1-1.9-0.1-2.8-0.2v-0.2h-2.2v0.2H87c-0.6,0.2-1,0.3-1.9,0.4
		c-0.1-0.2-0.1-0.4-0.2-0.6h-0.2V38h-0.2v-0.4c-0.1-0.1-0.2-0.1-0.4-0.2v-0.4C84.1,37,84,37,83.9,36.9v-0.4
		c-0.2-0.1-0.4-0.2-0.6-0.4v-0.4c-0.2-0.2-0.5-0.4-0.7-0.6v-0.4c-0.6-0.5-1.1-1-1.7-1.5c-0.2-0.3-0.5-0.6-0.8-0.9h-0.4
		c-0.2-0.3-0.5-0.6-0.8-0.9h-0.4c-0.1-0.1-0.1-0.2-0.2-0.4H78c-0.1-0.2-0.2-0.4-0.4-0.6c-0.2-0.1-0.5-0.1-0.7-0.2
		c-0.1-0.1-0.1-0.2-0.2-0.4c-0.4-0.1-0.8-0.2-1.1-0.4c-0.1-0.1-0.1-0.2-0.2-0.4h-0.4V29h-0.4v-0.2h-0.6v-0.2
		c-0.2-0.1-0.5-0.1-0.7-0.2v-0.2c-0.3-0.1-0.6-0.1-0.9-0.2v-0.2c-1.6-0.4-3.1-0.7-4.7-1.1h-1.7v-0.2c-1.2-0.3-4.3,0.1-5.1,0.4
		c-0.7,0.1-1.4,0.1-2.1,0.2v0.2h-0.8c-1.1,0.4-2.2,0.7-3.4,1.1v0.2c-0.4,0.1-0.7,0.2-1.1,0.4v0.2h-0.4v0.2c-0.2,0.1-0.5,0.1-0.7,0.2
		c-0.1,0.1-0.1,0.2-0.2,0.4c-0.2,0.1-0.5,0.1-0.7,0.2c-0.1,0.1-0.1,0.2-0.2,0.4h-0.4c-0.1,0.1-0.1,0.2-0.2,0.4h-0.4
		c-0.1,0.1-0.1,0.2-0.2,0.4h-0.4c-0.2,0.2-0.4,0.5-0.6,0.7H49c-0.4,0.5-0.9,1-1.3,1.5h-0.4c-0.1,0.2-0.1,0.4-0.2,0.6
		c-0.4,0.4-0.9,0.7-1.3,1.1v0.4c-0.2,0.1-0.4,0.2-0.6,0.4v0.4c-0.2,0.1-0.4,0.2-0.6,0.4v0.4c-0.1,0.1-0.2,0.1-0.4,0.2v0.4
		c-0.1,0.1-0.2,0.1-0.4,0.2c-0.1,0.2-0.1,0.5-0.2,0.8c-0.1,0.1-0.2,0.1-0.4,0.2c-0.1,0.2-0.1,0.5-0.2,0.7H43
		c-0.1,0.2-0.1,0.5-0.2,0.7h-0.2c-0.1,0.2-0.1,0.5-0.2,0.8h-0.2v0.6h-0.2V42h-0.2c-0.1,0.6-0.2,1.2-0.4,1.9
		c-1.4-0.1-2.9-0.2-4.3-0.4h-1.1v0.2c-0.7,0.1-1.5,0.1-2.2,0.2V44h-0.6v0.2h-0.6v0.2h-0.6v0.2h-0.6v0.2c-0.4,0.1-0.7,0.2-1.1,0.4
		v0.2c-0.2,0.1-0.5,0.1-0.7,0.2c-0.1,0.1-0.1,0.2-0.2,0.4h-0.4C29.1,46,29,46.1,29,46.3h-0.4c-0.1,0.1-0.1,0.2-0.2,0.4H28
		c-0.6,0.6-1.1,1.2-1.7,1.9c-0.3,0.2-0.6,0.5-0.9,0.7v0.4c-0.2,0.1-0.4,0.2-0.6,0.4v0.4c-0.1,0.1-0.2,0.1-0.4,0.2
		c-0.1,0.2-0.1,0.5-0.2,0.8c-0.1,0.1-0.2,0.1-0.4,0.2c-0.1,0.4-0.2,0.9-0.4,1.3c-0.9,1.8-1.3,3.7-1.3,6.6v1.7h0.2v1.1h0.2
		c0.1,0.5,0.1,1,0.2,1.5H23v0.4h0.2c0.1,0.4,0.1,0.7,0.2,1.1h0.2c0.1,0.2,0.1,0.5,0.2,0.7h0.2c0.1,0.2,0.1,0.5,0.2,0.7
		c0.1,0.1,0.2,0.1,0.4,0.2c0.1,0.2,0.1,0.5,0.2,0.7c0.1,0.1,0.2,0.1,0.4,0.2c0.1,0.2,0.1,0.4,0.2,0.6c0.2,0.1,0.4,0.2,0.6,0.4v0.4
		c0.2,0.1,0.4,0.2,0.6,0.4c0.4,0.4,0.7,0.9,1.1,1.3h0.4c0.1,0.2,0.2,0.4,0.4,0.6c0.2,0.1,0.4,0.1,0.6,0.2c0.1,0.1,0.1,0.2,0.2,0.4
		c0.2,0.1,0.5,0.1,0.8,0.2c0.1,0.1,0.1,0.2,0.2,0.4c0.2,0.1,0.5,0.1,0.7,0.2v0.2c0.2,0.1,0.5,0.1,0.8,0.2v0.2
		c0.3,0.1,0.6,0.1,0.9,0.2v0.2h0.6v0.2c0.5,0.1,1,0.1,1.5,0.2v0.2c1.5,0.1,3,0.1,4.5,0.2h9h28.8H88c1.9-0.1,3.7-0.1,5.6-0.2V74
		c0.5-0.1,1-0.1,1.5-0.2v-0.2c0.4-0.1,0.8-0.1,1.1-0.2v-0.2h0.4V73h0.6v-0.2c0.4-0.1,0.7-0.2,1.1-0.4v-0.2c0.2-0.1,0.5-0.1,0.7-0.2
		c0.1-0.1,0.1-0.2,0.2-0.4c0.2-0.1,0.5-0.1,0.7-0.2c0.1-0.1,0.1-0.2,0.2-0.4c0.2-0.1,0.4-0.1,0.6-0.2c0.1-0.2,0.2-0.4,0.4-0.6h0.4
		c0.4-0.5,0.9-1,1.3-1.5c0.4-0.4,0.9-0.7,1.3-1.1v-0.4c0.1-0.1,0.2-0.1,0.4-0.2v-0.4c0.2-0.1,0.4-0.2,0.6-0.4v-0.4
		c0.1-0.1,0.2-0.1,0.4-0.2c0.1-0.2,0.1-0.5,0.2-0.7h0.2v-0.4h0.2v-0.4h0.2c0.1-0.4,0.2-0.8,0.4-1.1h0.2c0.1-0.6,0.2-1.1,0.4-1.7
		C108,59.3,108.3,55.2,107.5,52.6"/>
	<path class="st3" d="M17.2,44.6c0.8,0,1.5,0.1,2.1,0.2c0.3,0.7,0.6,0.9,0.6,2.1c-0.2,0.2-0.1,0-0.2,0.4c-0.3,0.2-0.8,0.6-1.1,0.7
		h-1.1c-1.5,0.5-3.3,1.1-5.1,0.7c-0.3-0.6-0.7-0.8-0.8-1.7c0.4-0.4,0.2-0.8,0.8-1.1v-0.2c0.4-0.1,0.9-0.1,1.3-0.2v-0.2h0.9v-0.2h0.9
		v-0.2h0.7v-0.2h0.9V44.6z"/>
</g>
</svg>
