<?xml version="1.0" encoding="utf-8"?>
<!-- Generator: Adobe Illustrator 19.0.0, SVG Export Plug-In . SVG Version: 6.00 Build 0)  -->
<svg version="1.1" id="Layer_1" xmlns="http://www.w3.org/2000/svg" xmlns:xlink="http://www.w3.org/1999/xlink" x="0px" y="0px"
	 viewBox="0 0 194.3 194.3" style="enable-background:new 0 0 194.3 194.3;" xml:space="preserve">
<style type="text/css">
	.st0{clip-path:url(#XMLID_3_);fill:#E6D4E8;}
	.st1{clip-path:url(#XMLID_3_);fill:#F5CED6;}
	.st2{clip-path:url(#XMLID_3_);fill:#EBF4FB;}
	.st3{clip-path:url(#XMLID_3_);fill:#EAF2CD;}
	.st4{clip-path:url(#XMLID_4_);fill:#D4E499;}
</style>
<g id="XMLID_1_">
	<defs>
		<rect id="XMLID_21_" x="3" y="1" width="191.3" height="191.3"/>
	</defs>
	<clipPath id="XMLID_3_">
		<use xlink:href="#XMLID_21_"  style="overflow:visible;"/>
	</clipPath>
	<path id="XMLID_9_" class="st0" d="M159.4,96.9c0,33.9-27.5,61.4-61.4,61.4c-33.9,0-61.4-27.5-61.4-61.4S64,35.5,98,35.5
		C131.9,35.5,159.4,63,159.4,96.9 M174.1,96.9c0-42.1-34.1-76.2-76.2-76.2c-42.1,0-76.2,34.1-76.2,76.2s34.1,76.2,76.2,76.2
		C140,173.1,174.1,139,174.1,96.9"/>
	<path id="XMLID_12_" class="st1" d="M138.9,96.9c0,22.6-18.3,40.9-40.9,40.9c-22.6,0-40.9-18.3-40.9-40.9S75.4,56,98,56
		C120.6,56,138.9,74.3,138.9,96.9 M153.2,96.9c0-30.5-24.7-55.2-55.2-55.2c-30.5,0-55.2,24.7-55.2,55.2s24.7,55.2,55.2,55.2
		C128.5,152.1,153.2,127.4,153.2,96.9"/>
	<path id="XMLID_15_" class="st2" d="M119.5,96.9c0,11.9-9.6,21.5-21.5,21.5c-11.9,0-21.5-9.6-21.5-21.5S86.1,75.4,98,75.4
		C109.9,75.4,119.5,85,119.5,96.9 M133.7,96.9c0-19.7-16-35.7-35.7-35.7s-35.7,16-35.7,35.7s16,35.7,35.7,35.7
		S133.7,116.6,133.7,96.9"/>
	<path id="XMLID_18_" class="st3" d="M181.6,96.6c0,45.8-37.1,82.9-82.9,82.9s-82.9-37.1-82.9-82.9s37.1-82.9,82.9-82.9
		S181.6,50.8,181.6,96.6 M194.3,96.6C194.3,43.8,151.5,1,98.7,1S3,43.8,3,96.6s42.8,95.7,95.7,95.7S194.3,149.5,194.3,96.6"/>
</g>
<g id="XMLID_22_">
	<defs>
		<path id="XMLID_24_" d="M15.7,96.6c0-45.8,37.1-82.9,82.9-82.9s82.9,37.1,82.9,82.9s-37.1,82.9-82.9,82.9S15.7,142.4,15.7,96.6
			 M98.7,1C45.8,1,3,43.8,3,96.6c0,52.8,42.8,95.7,95.7,95.7c52.8,0,95.7-42.8,95.7-95.7C194.3,43.8,151.5,1,98.7,1z"/>
	</defs>
	<clipPath id="XMLID_4_">
		<use xlink:href="#XMLID_24_"  style="overflow:visible;"/>
	</clipPath>
	<polygon id="XMLID_23_" class="st4" points="194.8,95.7 102.2,95.7 182.4,49.4 181.2,47.5 101.1,93.7 147.4,13.6 145.4,12.4 
		99.1,92.6 99.1,0.1 96.8,0.1 96.8,92.6 50.6,12.4 48.6,13.6 94.8,93.7 14.7,47.5 13.6,49.4 93.7,95.7 1.2,95.7 1.2,98 93.7,98 
		13.6,144.3 14.7,146.2 94.8,100 48.6,180.1 50.6,181.3 96.8,101.1 96.8,193.7 99.1,193.7 99.1,101.1 145.4,181.3 147.4,180.1 
		101.1,100 181.2,146.2 182.4,144.3 102.2,98 194.8,98 	"/>
</g>
</svg>
