<?xml version="1.0" encoding="utf-8"?>
<!-- Generator: Adobe Illustrator 19.0.0, SVG Export Plug-In . SVG Version: 6.00 Build 0)  -->
<svg version="1.1" id="Layer_1" xmlns="http://www.w3.org/2000/svg" xmlns:xlink="http://www.w3.org/1999/xlink" x="0px" y="0px"
	 viewBox="0 0 224 200.5" style="enable-background:new 0 0 224 200.5;" xml:space="preserve">
<style type="text/css">
	.st0{clip-path:url(#XMLID_67_);fill:#ECF4FC;}
	.st1{clip-path:url(#XMLID_67_);fill:#EBF2CD;}
	.st2{clip-path:url(#XMLID_68_);fill:#E7D4E8;}
	.st3{clip-path:url(#XMLID_68_);fill:#F4CED6;}
	.st4{clip-path:url(#SVGID_2_);fill:#D3E499;}
	.st5{clip-path:url(#XMLID_69_);fill:#7F56A3;}
	.st6{clip-path:url(#XMLID_69_);fill:#CF202D;}
	.st7{clip-path:url(#XMLID_69_);fill:#99C9EB;}
	.st8{clip-path:url(#XMLID_69_);fill:#1F293D;}
	.st9{clip-path:url(#XMLID_69_);fill:none;stroke:#97999C;stroke-width:2.126;}
	.st10{clip-path:url(#XMLID_69_);fill:none;stroke:#97999C;stroke-width:2.126;stroke-miterlimit:10;}
</style>
<g id="XMLID_14_">
	<g>
		<defs>
			<rect id="XMLID_35_" x="17.2" y="5.6" width="187.7" height="187.8"/>
		</defs>
		<clipPath id="XMLID_67_">
			<use xlink:href="#XMLID_35_"  style="overflow:visible;"/>
		</clipPath>
		<path class="st0" d="M145.6,99.9c0-19.4-15.7-35.1-35.1-35.1c-19.4,0-35.1,15.7-35.1,35.1S91.2,135,110.5,135
			C129.9,135,145.6,119.3,145.6,99.9 M131.7,99.9c0,11.7-9.5,21.2-21.2,21.2s-21.2-9.5-21.2-21.2s9.5-21.2,21.2-21.2
			S131.7,88.2,131.7,99.9"/>
		<path class="st1" d="M205.2,99.6c0-51.9-42.1-94-94-94c-51.9,0-94,42.1-94,94s42.1,94,94,94C163.1,193.7,205.2,151.6,205.2,99.6
			 M192.7,99.6c0,45-36.5,81.5-81.5,81.5c-45,0-81.5-36.5-81.5-81.5s36.5-81.5,81.5-81.5C156.2,18.1,192.7,54.6,192.7,99.6"/>
	</g>
	<g>
		<defs>
			<rect id="XMLID_30_" width="224" height="200.5"/>
		</defs>
		<clipPath id="XMLID_68_">
			<use xlink:href="#XMLID_30_"  style="overflow:visible;"/>
		</clipPath>
		<path class="st2" d="M185.4,99.9c0-41.4-33.5-74.9-74.9-74.9c-41.4,0-74.9,33.5-74.9,74.9s33.5,74.9,74.9,74.9
			C151.9,174.8,185.4,141.3,185.4,99.9 M170.9,99.9c0,33.3-27,60.4-60.4,60.4c-33.4,0-60.4-27-60.4-60.4s27-60.4,60.4-60.4
			C143.9,39.6,170.9,66.6,170.9,99.9"/>
		<path class="st3" d="M164.8,99.9c0-30-24.3-54.3-54.3-54.3S56.3,70,56.3,99.9s24.3,54.3,54.3,54.3S164.8,129.9,164.8,99.9
			 M150.8,99.9c0,22.2-18,40.2-40.2,40.2s-40.2-18-40.2-40.2c0-22.2,18-40.2,40.2-40.2S150.8,77.7,150.8,99.9"/>
	</g>
	<g>
		<defs>
			<path id="SVGID_1_" d="M29.7,99.6c0-45,36.5-81.5,81.5-81.5s81.5,36.5,81.5,81.5s-36.5,81.5-81.5,81.5S29.7,144.6,29.7,99.6
				 M17.2,99.6c0,49.5,38.3,90.1,86.9,93.8h14.2c46.1-3.4,82.9-40.1,86.6-86.1V92C201,43.6,160.6,5.6,111.2,5.6
				C59.3,5.6,17.2,47.7,17.2,99.6"/>
		</defs>
		<clipPath id="SVGID_2_">
			<use xlink:href="#SVGID_1_"  style="overflow:visible;"/>
		</clipPath>
		<polygon id="XMLID_29_" class="st4" points="205.7,98.7 114.7,98.7 193.5,53.3 192.4,51.3 113.6,96.8 159.1,18 157.1,16.9 
			111.7,95.7 111.7,4.7 109.4,4.7 109.4,95.7 64,16.9 62,18 107.5,96.8 28.7,51.3 27.6,53.3 106.3,98.7 15.4,98.7 15.4,101 
			106.3,101 27.6,146.5 28.7,148.4 107.5,102.9 62,181.7 64,182.8 109.4,104.1 109.4,195 111.7,195 111.7,104.1 157.1,182.8 
			159.1,181.7 113.6,102.9 192.4,148.4 193.5,146.5 114.7,101 205.7,101 		"/>
	</g>
	<g>
		<defs>
			<rect id="XMLID_15_" width="224" height="200.5"/>
		</defs>
		<clipPath id="XMLID_69_">
			<use xlink:href="#XMLID_15_"  style="overflow:visible;"/>
		</clipPath>
		<path id="XMLID_26_" class="st5" d="M185.5,93.4c0,0,0.1,1.4,0.3,3.8c-1.3-40.2-34.3-72.5-74.8-72.5C69.6,24.7,36,58.3,36,99.6
			s33.5,74.9,74.9,74.9c7.5,0,14.7-1.1,21.5-3.2c-0.1,0-0.2,0-0.2,0c4-0.9,6.5-4.8,5.6-8.8c-0.9-3.8-4.5-6.5-8.3-6
			c-5.9,2-12.3,3-18.9,3c-33.3,0-60.3-27-60.3-60.3c0-33.3,27-60.3,60.3-60.3c32.1,0,58.4,25.2,60.2,56.9c1,3.3,4.3,5.6,7.8,5.4
			C182.8,101,185.8,97.5,185.5,93.4"/>
		<path id="XMLID_25_" class="st6" d="M165.4,94.6c-2.5-27.9-25.9-49.8-54.5-49.8c-30.2,0-54.7,24.5-54.7,54.7
			c0,25.2,17,46.3,40.1,52.7c3.2,0.3,6.3-1.6,7.3-4.9c1.1-3.3-0.2-6.9-3.1-8.7c-17.4-4.6-30.2-20.4-30.2-39.2
			c0-22.4,18.2-40.6,40.6-40.6c21.6,0,39.2,16.8,40.5,38c1.1,2.9,3.9,4.8,7.1,4.7C162.3,101.6,165.4,98.4,165.4,94.6"/>
		<path id="XMLID_24_" class="st7" d="M145.3,92.3c-0.1-0.5-0.2-1-0.3-1.5c-4.9-18.9-24.1-30.2-43-25.3c-18.9,4.9-30.2,24.1-25.3,43
			c1.3,4.9,3.5,9.3,6.4,13c2.3,2.9,6.3,3.6,9.3,1.4c3-2.2,4-6.4,1.9-9.5c-2-2.4-3.4-5.1-4.3-8.3c-3-11.5,3.9-23.2,15.4-26.2
			c11.5-3,23.2,3.9,26.2,15.4c0.1,0.4,0.1,0.7,0.2,1.1c0,0,0,0,0,0c0.8,3.7,4.5,6,8.2,5.2C143.8,99.7,146.1,96,145.3,92.3
			C145.3,92.3,145.3,92.3,145.3,92.3"/>
		<path id="XMLID_23_" class="st8" d="M25.4,1.1c0,0-23.6,0-23.6,23.6V29c0,0,0,23.6,23.6,23.6h173.8c0,0,23.6,0,23.6-23.6v-4.2
			c0,0,0-23.6-23.6-23.6H25.4z"/>
		<path id="XMLID_22_" class="st9" d="M25.4,1.1c0,0-23.6,0-23.6,23.6V29c0,0,0,23.6,23.6,23.6h173.8c0,0,23.6,0,23.6-23.6v-4.2
			c0,0,0-23.6-23.6-23.6H25.4z"/>
		<line id="XMLID_21_" class="st10" x1="2.1" y1="26.9" x2="222.5" y2="26.9"/>
		<path class="st8" d="M217.3,183.6c0,0-1.7-4.6-7.2-5l0,4.3l-8.6-6.1l8.6-6.1l0,3.8C212.6,174.8,217.4,176.3,217.3,183.6
			 M224,176.9c0-8.2-6.6-14.8-14.8-14.8c-8.2,0-14.8,6.6-14.8,14.8s6.6,14.8,14.8,14.8C217.3,191.8,224,185.1,224,176.9"/>
		<path class="st8" d="M17.1,185h-3.9v-9.6h3.9V185z M17.1,172.5h-3.9v-3.1h3.9V172.5z M29.7,177.2c0-8-6.5-14.6-14.6-14.6
			s-14.6,6.5-14.6,14.6s6.5,14.6,14.6,14.6S29.7,185.2,29.7,177.2"/>
	</g>
</g>
</svg>
